<svg xmlns="http://www.w3.org/2000/svg" xmlns:xlink="http://www.w3.org/1999/xlink" width="1080" zoomAndPan="magnify" viewBox="0 0 810 809.999993" height="1080" preserveAspectRatio="xMidYMid meet" version="1.0"><defs><clipPath id="dd8b348740"><path d="M 139.117188 645 L 186 645 L 186 693 L 139.117188 693 Z M 139.117188 645 " clip-rule="nonzero"/></clipPath><clipPath id="6fe74a122b"><path d="M 146 678 L 178 678 L 178 719.347656 L 146 719.347656 Z M 146 678 " clip-rule="nonzero"/></clipPath><clipPath id="d42d97d5b5"><path d="M 134 312 L 251 312 L 251 417 L 134 417 Z M 134 312 " clip-rule="nonzero"/></clipPath><clipPath id="41445c98e4"><path d="M 251.429688 176.351562 L 720.652344 555.082031 L 558.140625 756.429688 L 88.914062 377.699219 Z M 251.429688 176.351562 " clip-rule="nonzero"/></clipPath><clipPath id="6da2746f87"><path d="M 251.429688 176.351562 L 720.652344 555.082031 L 558.140625 756.429688 L 88.914062 377.699219 Z M 251.429688 176.351562 " clip-rule="nonzero"/></clipPath><clipPath id="350ec03c05"><path d="M 243 340 L 656 340 L 656 642 L 243 642 Z M 243 340 " clip-rule="nonzero"/></clipPath><clipPath id="7abdc0807e"><path d="M 251.429688 176.351562 L 720.652344 555.082031 L 558.140625 756.429688 L 88.914062 377.699219 Z M 251.429688 176.351562 " clip-rule="nonzero"/></clipPath><clipPath id="16ad48903c"><path d="M 251.429688 176.351562 L 720.652344 555.082031 L 558.140625 756.429688 L 88.914062 377.699219 Z M 251.429688 176.351562 " clip-rule="nonzero"/></clipPath><clipPath id="0401bc8c54"><path d="M 252.261719 204.722656 L 351.261719 204.722656 L 351.261719 367.472656 L 252.261719 367.472656 Z M 252.261719 204.722656 " clip-rule="nonzero"/></clipPath></defs><path fill="#dedede" d="M 536.988281 362.167969 L 534.871094 359.714844 L 540.347656 344.6875 C 541.769531 339.183594 543.3125 334.378906 544.976562 330.269531 C 546.820312 325.464844 550.035156 318.277344 554.617188 308.714844 C 575.191406 266.320312 592.246094 233.867188 605.777344 211.347656 C 615.585938 195.628906 623.316406 186.074219 628.957031 182.691406 C 634.347656 178.558594 640.605469 177.390625 647.730469 179.1875 L 611.640625 261.410156 L 536.988281 362.167969 " fill-opacity="1" fill-rule="nonzero"/><path fill="#dedede" d="M 536.65625 361.96875 L 539.8125 362.710938 L 550.605469 350.910156 C 554.828125 347.101562 558.375 343.507812 561.25 340.136719 C 564.660156 336.28125 569.542969 330.109375 575.902344 321.621094 C 603.980469 283.777344 624.871094 253.648438 638.582031 231.238281 C 647.984375 215.269531 652.882812 204.003906 653.273438 197.433594 C 654.445312 190.746094 652.585938 184.65625 647.699219 179.167969 L 591.480469 249.1875 L 536.65625 361.96875 " fill-opacity="1" fill-rule="nonzero"/><path fill="#dedede" d="M 555.113281 321.785156 L 527.054688 319.785156 C 524.910156 319.988281 522.980469 321.457031 521.265625 324.1875 C 519.667969 326.449219 516.632812 332.46875 512.152344 342.246094 L 542.4375 348.757812 L 555.113281 321.785156 " fill-opacity="1" fill-rule="nonzero"/><path fill="#dedede" d="M 564.085938 327.226562 L 578.835938 351.179688 C 579.644531 353.175781 579.234375 355.566406 577.605469 358.347656 C 576.339844 360.808594 572.40625 366.285156 565.804688 374.777344 L 546.03125 350.9375 L 564.085938 327.226562 " fill-opacity="1" fill-rule="nonzero"/><path fill="#dedede" d="M 597.757812 230.875 L 506.261719 228.851562 C 504.035156 228.65625 501.835938 229.925781 499.664062 232.664062 C 497.679688 234.898438 493.644531 241.082031 487.558594 251.214844 L 578.644531 275.265625 L 597.757812 230.875 " fill-opacity="1" fill-rule="nonzero"/><path fill="#dedede" d="M 624.976562 247.378906 L 669.074219 327.570312 C 670.277344 329.453125 670.167969 331.992188 668.746094 335.183594 C 667.683594 337.976562 664.066406 344.414062 657.894531 354.496094 L 594.453125 284.851562 L 624.976562 247.378906 " fill-opacity="1" fill-rule="nonzero"/><path fill="#dedede" d="M 520.132812 234.371094 L 527.261719 222.429688 C 534.839844 220.261719 539.589844 219.113281 541.511719 218.976562 C 543.851562 218.695312 545.367188 219.183594 546.058594 220.433594 L 534.6875 248.300781 L 520.132812 234.371094 " fill-opacity="1" fill-rule="nonzero"/><path fill="#dedede" d="M 657.769531 317.824219 L 665.0625 305.980469 C 663.476562 298.257812 662.300781 293.515625 661.535156 291.746094 C 660.699219 289.542969 659.566406 288.425781 658.136719 288.390625 L 638.6875 311.359375 L 657.769531 317.824219 " fill-opacity="1" fill-rule="nonzero"/><path fill="#dedede" d="M 551.816406 234.6875 L 557.179688 222.605469 C 564.535156 221.199219 569.121094 220.53125 570.9375 220.597656 C 573.066406 220.535156 574.359375 221.214844 574.8125 222.636719 L 565.300781 249.210938 L 551.816406 234.6875 " fill-opacity="1" fill-rule="nonzero"/><path fill="#dedede" d="M 642.839844 289.875 L 651.070312 279.535156 C 648.917969 272.363281 647.390625 267.988281 646.488281 266.40625 C 645.5625 264.488281 644.363281 263.65625 642.890625 263.914062 L 623.726562 284.636719 L 642.839844 289.875 " fill-opacity="1" fill-rule="nonzero"/><g clip-path="url(#dd8b348740)"><path fill="#dedede" d="M 185.929688 668.722656 C 185.929688 681.652344 175.449219 692.132812 162.519531 692.132812 C 149.589844 692.132812 139.109375 681.652344 139.109375 668.722656 C 139.109375 655.792969 149.589844 645.3125 162.519531 645.3125 C 175.449219 645.3125 185.929688 655.792969 185.929688 668.722656 M 172.578125 668.722656 C 172.578125 663.167969 168.074219 658.664062 162.519531 658.664062 C 156.964844 658.664062 152.460938 663.167969 152.460938 668.722656 C 152.460938 674.277344 156.964844 678.78125 162.519531 678.78125 C 168.074219 678.78125 172.578125 674.277344 172.578125 668.722656 Z M 172.578125 668.722656 " fill-opacity="1" fill-rule="nonzero"/></g><g clip-path="url(#6fe74a122b)"><path fill="#dedede" d="M 177.523438 680.265625 L 168.867188 699.898438 L 160.207031 719.53125 C 155.75 705.785156 151.292969 692.039062 146.835938 678.292969 L 177.523438 680.265625 " fill-opacity="1" fill-rule="nonzero"/></g><path fill="#dedede" d="M 425.375 363.171875 C 424.75 363.171875 424.117188 363.199219 423.480469 363.257812 C 421.882812 363.410156 420.707031 364.824219 420.859375 366.425781 C 421 367.929688 422.265625 369.058594 423.75 369.058594 C 423.839844 369.058594 423.929688 369.054688 424.023438 369.046875 C 424.476562 369.003906 424.929688 368.984375 425.375 368.984375 C 426.554688 368.984375 427.699219 369.128906 428.800781 369.410156 C 429.039062 369.472656 429.28125 369.5 429.519531 369.5 C 430.816406 369.5 432 368.625 432.332031 367.308594 C 432.726562 365.753906 431.785156 364.171875 430.230469 363.777344 C 428.660156 363.378906 427.035156 363.171875 425.375 363.171875 Z M 425.375 363.171875 " fill-opacity="1" fill-rule="nonzero"/><path fill="#dedede" d="M 361.085938 366.472656 C 361.050781 366.472656 361.015625 366.472656 360.976562 366.472656 C 358.722656 366.554688 356.539062 366.945312 354.441406 367.671875 C 352.925781 368.199219 352.125 369.855469 352.652344 371.371094 C 353.066406 372.570312 354.191406 373.324219 355.394531 373.324219 C 355.710938 373.324219 356.035156 373.273438 356.351562 373.164062 C 357.863281 372.636719 359.472656 372.34375 361.1875 372.28125 C 362.792969 372.222656 364.046875 370.875 363.988281 369.273438 C 363.929688 367.703125 362.640625 366.472656 361.085938 366.472656 Z M 361.085938 366.472656 " fill-opacity="1" fill-rule="nonzero"/><path fill="#dedede" d="M 415.515625 365.917969 C 415.039062 365.917969 414.558594 366.035156 414.109375 366.28125 C 412.378906 367.242188 410.652344 368.429688 408.945312 369.84375 C 408.914062 369.871094 408.917969 369.867188 408.886719 369.894531 C 407.652344 370.921875 407.484375 372.753906 408.511719 373.988281 C 409.085938 374.675781 409.914062 375.035156 410.746094 375.035156 C 411.402344 375.035156 412.058594 374.8125 412.601562 374.359375 C 412.601562 374.359375 412.648438 374.324219 412.652344 374.320312 C 414.109375 373.113281 415.539062 372.136719 416.929688 371.367188 C 418.332031 370.585938 418.839844 368.820312 418.0625 367.414062 C 417.53125 366.457031 416.539062 365.917969 415.515625 365.917969 Z M 415.515625 365.917969 " fill-opacity="1" fill-rule="nonzero"/><path fill="#dedede" d="M 369.683594 367.65625 C 368.425781 367.65625 367.265625 368.480469 366.894531 369.75 C 366.445312 371.292969 367.332031 372.902344 368.875 373.351562 C 370.5 373.824219 372.1875 374.453125 373.941406 375.234375 C 374.324219 375.40625 374.726562 375.488281 375.125 375.488281 C 376.234375 375.488281 377.296875 374.847656 377.777344 373.765625 C 378.433594 372.300781 377.777344 370.582031 376.308594 369.925781 C 374.34375 369.050781 372.40625 368.328125 370.496094 367.773438 C 370.226562 367.691406 369.953125 367.65625 369.683594 367.65625 Z M 369.683594 367.65625 " fill-opacity="1" fill-rule="nonzero"/><path fill="#dedede" d="M 437.144531 367.75 C 436.324219 367.75 435.511719 368.09375 434.9375 368.761719 C 433.894531 369.980469 434.03125 371.816406 435.25 372.859375 C 436.515625 373.945312 437.582031 375.183594 438.429688 376.570312 C 438.976562 377.464844 439.933594 377.957031 440.910156 377.957031 C 441.425781 377.957031 441.953125 377.820312 442.425781 377.527344 C 443.792969 376.691406 444.222656 374.902344 443.382812 373.53125 C 442.207031 371.609375 440.738281 369.914062 439.035156 368.449219 C 438.488281 367.980469 437.8125 367.75 437.144531 367.75 Z M 437.144531 367.75 " fill-opacity="1" fill-rule="nonzero"/><path fill="#dedede" d="M 382.800781 373.808594 C 381.832031 373.808594 380.886719 374.292969 380.335938 375.175781 C 379.484375 376.539062 379.898438 378.332031 381.261719 379.179688 C 382.785156 380.132812 384.34375 381.183594 385.925781 382.320312 C 386.441406 382.691406 387.035156 382.867188 387.621094 382.867188 C 388.523438 382.867188 389.414062 382.449219 389.984375 381.660156 C 390.917969 380.355469 390.625 378.539062 389.320312 377.601562 C 387.644531 376.398438 385.980469 375.277344 384.339844 374.25 C 383.859375 373.953125 383.328125 373.808594 382.800781 373.808594 Z M 382.800781 373.808594 " fill-opacity="1" fill-rule="nonzero"/><path fill="#dedede" d="M 348.234375 372.292969 C 347.390625 372.292969 346.550781 372.660156 345.976562 373.367188 C 344.492188 375.199219 343.457031 377.320312 342.867188 379.65625 C 342.476562 381.214844 343.421875 382.792969 344.976562 383.1875 C 345.214844 383.246094 345.453125 383.273438 345.6875 383.273438 C 346.988281 383.273438 348.171875 382.398438 348.503906 381.078125 C 348.902344 379.507812 349.570312 378.164062 350.492188 377.03125 C 351.5 375.785156 351.3125 373.953125 350.066406 372.941406 C 349.527344 372.503906 348.878906 372.292969 348.234375 372.292969 Z M 348.234375 372.292969 " fill-opacity="1" fill-rule="nonzero"/><path fill="#dedede" d="M 526.0625 375.1875 C 525.128906 375.1875 524.210938 375.640625 523.648438 376.472656 C 522.644531 377.964844 521.542969 379.472656 520.34375 380.992188 C 519.347656 382.25 519.5625 384.078125 520.824219 385.074219 C 521.355469 385.496094 521.992188 385.699219 522.621094 385.699219 C 523.480469 385.699219 524.332031 385.320312 524.902344 384.59375 C 526.191406 382.96875 527.378906 381.339844 528.472656 379.714844 C 529.367188 378.382812 529.015625 376.578125 527.683594 375.683594 C 527.183594 375.347656 526.621094 375.1875 526.0625 375.1875 Z M 526.0625 375.1875 " fill-opacity="1" fill-rule="nonzero"/><path fill="#dedede" d="M 405.046875 375.765625 C 404.078125 375.765625 403.132812 376.25 402.578125 377.132812 C 401.460938 378.921875 400.515625 380.832031 399.75 382.832031 C 399.179688 384.332031 399.929688 386.011719 401.425781 386.585938 C 401.769531 386.714844 402.121094 386.777344 402.464844 386.777344 C 403.632812 386.777344 404.738281 386.066406 405.179688 384.910156 C 405.816406 383.242188 406.59375 381.675781 407.507812 380.214844 C 408.359375 378.855469 407.945312 377.0625 406.585938 376.210938 C 406.105469 375.910156 405.574219 375.765625 405.046875 375.765625 Z M 405.046875 375.765625 " fill-opacity="1" fill-rule="nonzero"/><path fill="#dedede" d="M 443.625 380.347656 C 443.519531 380.347656 443.414062 380.355469 443.308594 380.367188 C 441.714844 380.539062 440.558594 381.972656 440.730469 383.566406 C 440.902344 385.144531 440.902344 386.867188 440.695312 388.734375 C 440.519531 390.328125 441.671875 391.761719 443.265625 391.9375 C 443.375 391.949219 443.480469 391.957031 443.585938 391.957031 C 445.050781 391.957031 446.308594 390.855469 446.472656 389.367188 C 446.71875 387.121094 446.730469 384.976562 446.511719 382.941406 C 446.347656 381.453125 445.089844 380.347656 443.625 380.347656 Z M 443.625 380.347656 " fill-opacity="1" fill-rule="nonzero"/><path fill="#dedede" d="M 516.90625 386.449219 C 516.140625 386.449219 515.375 386.753906 514.800781 387.351562 C 513.539062 388.679688 512.203125 390.015625 510.792969 391.355469 C 509.628906 392.460938 509.585938 394.300781 510.691406 395.464844 C 511.261719 396.0625 512.027344 396.367188 512.796875 396.367188 C 513.515625 396.367188 514.234375 396.101562 514.796875 395.566406 C 516.273438 394.164062 517.679688 392.757812 519.011719 391.359375 C 520.117188 390.195312 520.074219 388.355469 518.910156 387.25 C 518.347656 386.714844 517.628906 386.449219 516.90625 386.449219 Z M 516.90625 386.449219 " fill-opacity="1" fill-rule="nonzero"/><path fill="#dedede" d="M 345.585938 386.113281 C 345.417969 386.113281 345.246094 386.128906 345.074219 386.160156 C 343.496094 386.441406 342.441406 387.949219 342.722656 389.527344 C 343.066406 391.476562 343.613281 393.5 344.34375 395.589844 C 344.765625 396.785156 345.886719 397.535156 347.085938 397.535156 C 347.40625 397.535156 347.730469 397.480469 348.050781 397.371094 C 349.5625 396.839844 350.359375 395.179688 349.828125 393.664062 C 349.1875 391.832031 348.726562 390.113281 348.445312 388.511719 C 348.195312 387.105469 346.96875 386.113281 345.585938 386.113281 Z M 345.585938 386.113281 " fill-opacity="1" fill-rule="nonzero"/><path fill="#dedede" d="M 394.46875 382.449219 C 393.664062 382.449219 392.863281 382.78125 392.289062 383.433594 C 391.226562 384.636719 391.339844 386.472656 392.542969 387.535156 C 393.914062 388.746094 395.25 390.03125 396.542969 391.386719 C 396.832031 391.691406 397.171875 391.917969 397.535156 392.070312 C 397.308594 394.066406 397.21875 396.113281 397.273438 398.195312 C 397.3125 399.777344 398.605469 401.027344 400.175781 401.027344 C 400.203125 401.027344 400.226562 401.027344 400.25 401.027344 C 401.472656 400.996094 402.496094 400.21875 402.898438 399.144531 L 402.902344 399.144531 C 403.644531 400.195312 404.367188 401.28125 405.070312 402.398438 C 405.621094 403.277344 406.566406 403.761719 407.53125 403.761719 C 408.058594 403.761719 408.59375 403.617188 409.074219 403.316406 C 410.433594 402.460938 410.84375 400.667969 409.988281 399.308594 C 408.902344 397.574219 407.765625 395.914062 406.585938 394.320312 C 406.015625 393.550781 405.136719 393.144531 404.246094 393.144531 C 403.910156 393.144531 403.570312 393.203125 403.246094 393.324219 C 403.269531 393.097656 403.292969 392.871094 403.320312 392.648438 C 403.472656 391.324219 402.714844 390.109375 401.542969 389.625 C 401.609375 388.828125 401.34375 388.003906 400.75 387.378906 C 399.339844 385.902344 397.886719 384.503906 396.390625 383.179688 C 395.835938 382.691406 395.152344 382.449219 394.46875 382.449219 Z M 394.46875 382.449219 " fill-opacity="1" fill-rule="nonzero"/><path fill="#dedede" d="M 441.003906 394.40625 C 439.957031 394.40625 438.945312 394.972656 438.425781 395.960938 C 437.683594 397.378906 436.742188 399.011719 435.632812 400.851562 C 434.800781 402.226562 435.242188 404.011719 436.613281 404.84375 C 437.082031 405.128906 437.601562 405.261719 438.113281 405.261719 C 439.097656 405.261719 440.058594 404.765625 440.605469 403.859375 C 441.75 401.964844 442.753906 400.21875 443.574219 398.660156 C 444.320312 397.242188 443.769531 395.484375 442.351562 394.738281 C 441.917969 394.511719 441.457031 394.40625 441.003906 394.40625 Z M 441.003906 394.40625 " fill-opacity="1" fill-rule="nonzero"/><path fill="#dedede" d="M 506.273438 396.367188 C 505.613281 396.367188 504.953125 396.589844 504.40625 397.046875 C 502.984375 398.242188 501.507812 399.4375 499.96875 400.636719 C 498.703125 401.625 498.480469 403.453125 499.46875 404.71875 C 500.039062 405.449219 500.894531 405.835938 501.757812 405.835938 C 502.382812 405.835938 503.015625 405.632812 503.546875 405.21875 C 505.132812 403.976562 506.667969 402.738281 508.144531 401.5 C 509.371094 400.46875 509.53125 398.636719 508.5 397.40625 C 507.925781 396.71875 507.101562 396.367188 506.273438 396.367188 Z M 506.273438 396.367188 " fill-opacity="1" fill-rule="nonzero"/><path fill="#dedede" d="M 350.652344 399.664062 C 350.1875 399.664062 349.714844 399.777344 349.277344 400.015625 C 347.863281 400.777344 347.335938 402.539062 348.097656 403.949219 C 349.011719 405.644531 350.03125 407.375 351.160156 409.140625 C 351.714844 410.007812 352.652344 410.484375 353.609375 410.484375 C 354.144531 410.484375 354.6875 410.335938 355.171875 410.027344 C 356.523438 409.160156 356.921875 407.363281 356.058594 406.011719 C 355 404.359375 354.054688 402.75 353.214844 401.191406 C 352.6875 400.21875 351.6875 399.664062 350.652344 399.664062 Z M 350.652344 399.664062 " fill-opacity="1" fill-rule="nonzero"/><path fill="#dedede" d="M 494.761719 405.226562 C 494.179688 405.226562 493.59375 405.402344 493.082031 405.765625 C 491.554688 406.851562 489.984375 407.9375 488.363281 409.027344 C 487.03125 409.925781 486.679688 411.730469 487.574219 413.0625 C 488.136719 413.894531 489.054688 414.34375 489.988281 414.34375 C 490.546875 414.34375 491.109375 414.183594 491.609375 413.851562 C 493.265625 412.734375 494.878906 411.617188 496.449219 410.5 C 497.757812 409.570312 498.0625 407.757812 497.132812 406.449219 C 496.566406 405.652344 495.671875 405.226562 494.761719 405.226562 Z M 494.761719 405.226562 " fill-opacity="1" fill-rule="nonzero"/><path fill="#dedede" d="M 401.09375 403.878906 C 400.90625 403.878906 400.71875 403.898438 400.527344 403.9375 C 398.953125 404.246094 397.929688 405.773438 398.238281 407.347656 C 398.675781 409.550781 399.246094 411.570312 399.949219 413.414062 C 400.390625 414.570312 401.492188 415.285156 402.664062 415.285156 C 403.007812 415.285156 403.355469 415.222656 403.699219 415.09375 C 405.199219 414.523438 405.949219 412.84375 405.378906 411.34375 C 404.804688 409.839844 404.320312 408.136719 403.941406 406.222656 C 403.667969 404.839844 402.453125 403.878906 401.09375 403.878906 Z M 401.09375 403.878906 " fill-opacity="1" fill-rule="nonzero"/><path fill="#dedede" d="M 411.753906 405.570312 C 411.332031 405.570312 410.898438 405.664062 410.492188 405.863281 C 409.046875 406.558594 408.441406 408.296875 409.140625 409.742188 C 410.066406 411.65625 410.707031 413.296875 411.097656 414.671875 C 411.460938 415.949219 412.625 416.78125 413.890625 416.78125 C 414.152344 416.78125 414.421875 416.746094 414.6875 416.671875 C 416.230469 416.230469 417.125 414.621094 416.6875 413.078125 C 416.179688 411.296875 415.398438 409.335938 414.371094 407.210938 C 413.871094 406.175781 412.835938 405.570312 411.753906 405.570312 Z M 411.753906 405.570312 " fill-opacity="1" fill-rule="nonzero"/><path fill="#dedede" d="M 433.476562 406.828125 C 432.523438 406.828125 431.589844 407.296875 431.035156 408.160156 C 430.035156 409.703125 428.972656 411.332031 427.875 413.015625 C 426.996094 414.359375 427.371094 416.160156 428.714844 417.039062 C 429.207031 417.359375 429.757812 417.511719 430.300781 417.511719 C 431.25 417.511719 432.179688 417.050781 432.738281 416.199219 C 433.839844 414.507812 434.910156 412.871094 435.914062 411.3125 C 436.785156 409.964844 436.398438 408.164062 435.050781 407.292969 C 434.5625 406.980469 434.015625 406.828125 433.476562 406.828125 Z M 433.476562 406.828125 " fill-opacity="1" fill-rule="nonzero"/><path fill="#dedede" d="M 482.617188 413.28125 C 482.097656 413.28125 481.570312 413.421875 481.09375 413.714844 C 479.460938 414.722656 477.832031 415.691406 476.199219 416.632812 C 474.808594 417.433594 474.332031 419.210938 475.132812 420.601562 C 475.667969 421.535156 476.648438 422.058594 477.652344 422.058594 C 478.144531 422.058594 478.644531 421.933594 479.101562 421.667969 C 480.78125 420.699219 482.460938 419.699219 484.140625 418.664062 C 485.507812 417.824219 485.933594 416.03125 485.09375 414.664062 C 484.542969 413.773438 483.589844 413.28125 482.617188 413.28125 Z M 482.617188 413.28125 " fill-opacity="1" fill-rule="nonzero"/><path fill="#dedede" d="M 358.617188 411.800781 C 358 411.800781 357.378906 411.996094 356.855469 412.398438 C 355.578125 413.371094 355.335938 415.195312 356.3125 416.472656 C 357.476562 417.996094 358.714844 419.542969 360.027344 421.109375 C 360.601562 421.792969 361.425781 422.144531 362.257812 422.144531 C 362.914062 422.144531 363.578125 421.921875 364.121094 421.464844 C 365.351562 420.433594 365.511719 418.601562 364.480469 417.371094 C 363.222656 415.871094 362.039062 414.394531 360.925781 412.941406 C 360.355469 412.191406 359.492188 411.800781 358.617188 411.800781 Z M 358.617188 411.800781 " fill-opacity="1" fill-rule="nonzero"/><path fill="#dedede" d="M 407.234375 416.816406 C 406.480469 416.816406 405.726562 417.109375 405.15625 417.691406 C 404.035156 418.839844 404.054688 420.679688 405.203125 421.800781 C 406.421875 422.992188 407.765625 423.960938 409.214844 424.6875 C 409.621094 424.890625 410.066406 424.992188 410.515625 424.992188 C 410.628906 424.992188 410.742188 424.988281 410.851562 424.972656 C 411.722656 424.871094 412.574219 424.664062 413.375 424.300781 L 413.375 424.304688 L 413.308594 424.332031 L 413.398438 424.292969 C 414.859375 423.628906 415.507812 421.90625 414.84375 420.445312 C 414.351562 419.355469 413.265625 418.71875 412.191406 418.71875 C 411.824219 418.71875 411.460938 418.792969 411.117188 418.949219 L 410.996094 419 C 410.988281 419.003906 410.980469 419.007812 410.972656 419.011719 C 410.390625 418.636719 409.820312 418.183594 409.265625 417.644531 C 408.699219 417.09375 407.96875 416.816406 407.234375 416.816406 Z M 407.234375 416.816406 " fill-opacity="1" fill-rule="nonzero"/><path fill="#dedede" d="M 470.003906 420.414062 C 469.554688 420.414062 469.097656 420.519531 468.667969 420.742188 C 466.960938 421.621094 465.265625 422.457031 463.5625 423.261719 C 462.113281 423.949219 461.492188 425.679688 462.179688 427.132812 C 462.675781 428.179688 463.71875 428.796875 464.808594 428.796875 C 465.222656 428.796875 465.644531 428.707031 466.046875 428.515625 C 467.808594 427.683594 469.570312 426.8125 471.332031 425.90625 L 471.339844 425.902344 L 471.34375 425.898438 C 472.765625 425.164062 473.324219 423.414062 472.589844 421.988281 C 472.074219 420.988281 471.058594 420.414062 470.003906 420.414062 Z M 470.003906 420.414062 " fill-opacity="1" fill-rule="nonzero"/><path fill="#dedede" d="M 425.53125 418.992188 C 424.585938 418.992188 423.65625 419.457031 423.097656 420.308594 C 422.054688 421.90625 421.003906 423.519531 419.921875 425.191406 C 419.046875 426.539062 419.433594 428.335938 420.78125 429.210938 C 421.269531 429.527344 421.816406 429.675781 422.355469 429.675781 C 423.308594 429.675781 424.242188 429.207031 424.800781 428.351562 C 425.878906 426.679688 426.917969 425.089844 427.960938 423.488281 C 428.839844 422.144531 428.464844 420.34375 427.121094 419.46875 C 426.628906 419.148438 426.078125 418.992188 425.53125 418.992188 Z M 425.53125 418.992188 " fill-opacity="1" fill-rule="nonzero"/><path fill="#dedede" d="M 368.351562 422.558594 C 367.539062 422.558594 366.726562 422.898438 366.152344 423.566406 C 365.101562 424.78125 365.238281 426.613281 366.453125 427.664062 C 368.011719 429.007812 369.636719 430.253906 371.3125 431.402344 C 371.816406 431.742188 372.386719 431.90625 372.949219 431.90625 C 373.878906 431.90625 374.789062 431.464844 375.351562 430.640625 C 376.257812 429.316406 375.917969 427.507812 374.59375 426.601562 C 373.089844 425.578125 371.640625 424.464844 370.25 423.261719 C 369.699219 422.789062 369.023438 422.558594 368.351562 422.558594 Z M 368.351562 422.558594 " fill-opacity="1" fill-rule="nonzero"/><path fill="#dedede" d="M 456.820312 426.5 C 456.453125 426.5 456.082031 426.570312 455.722656 426.714844 C 453.949219 427.4375 452.175781 428.121094 450.410156 428.765625 C 448.902344 429.3125 448.125 430.980469 448.671875 432.488281 C 449.101562 433.667969 450.214844 434.402344 451.402344 434.402344 C 451.730469 434.402344 452.066406 434.347656 452.394531 434.226562 C 454.230469 433.558594 456.078125 432.847656 457.917969 432.097656 C 459.40625 431.492188 460.117188 429.792969 459.511719 428.308594 C 459.050781 427.183594 457.964844 426.5 456.820312 426.5 Z M 456.820312 426.5 " fill-opacity="1" fill-rule="nonzero"/><path fill="#dedede" d="M 380.523438 430.394531 C 379.429688 430.394531 378.382812 431.015625 377.890625 432.074219 C 377.210938 433.53125 377.839844 435.257812 379.296875 435.9375 C 381.136719 436.792969 383.023438 437.554688 384.953125 438.226562 C 385.265625 438.335938 385.589844 438.390625 385.90625 438.390625 C 387.109375 438.390625 388.234375 437.636719 388.652344 436.4375 C 389.179688 434.921875 388.378906 433.265625 386.863281 432.738281 C 385.109375 432.128906 383.40625 431.441406 381.75 430.667969 C 381.351562 430.484375 380.9375 430.394531 380.523438 430.394531 Z M 380.523438 430.394531 " fill-opacity="1" fill-rule="nonzero"/><path fill="#dedede" d="M 443.121094 431.3125 C 442.847656 431.3125 442.574219 431.351562 442.300781 431.433594 C 440.464844 431.972656 438.644531 432.464844 436.816406 432.917969 C 435.257812 433.300781 434.308594 434.875 434.691406 436.433594 C 435.019531 437.757812 436.207031 438.644531 437.511719 438.644531 C 437.742188 438.644531 437.976562 438.617188 438.210938 438.558594 C 440.121094 438.085938 442.027344 437.570312 443.941406 437.007812 C 445.480469 436.554688 446.359375 434.9375 445.90625 433.398438 C 445.535156 432.132812 444.375 431.3125 443.121094 431.3125 Z M 443.121094 431.3125 " fill-opacity="1" fill-rule="nonzero"/><path fill="#dedede" d="M 428.988281 434.628906 C 428.820312 434.628906 428.65625 434.640625 428.484375 434.671875 C 426.613281 434.996094 424.746094 435.277344 422.882812 435.507812 C 421.289062 435.707031 420.160156 437.15625 420.355469 438.75 C 420.539062 440.222656 421.792969 441.296875 423.238281 441.296875 C 423.355469 441.296875 423.476562 441.289062 423.597656 441.273438 C 425.554688 441.03125 427.519531 440.738281 429.484375 440.398438 C 431.0625 440.121094 432.121094 438.617188 431.847656 437.035156 C 431.601562 435.625 430.375 434.628906 428.988281 434.628906 Z M 428.988281 434.628906 " fill-opacity="1" fill-rule="nonzero"/><path fill="#dedede" d="M 394.308594 434.859375 C 392.953125 434.859375 391.742188 435.8125 391.460938 437.191406 C 391.144531 438.765625 392.164062 440.296875 393.738281 440.613281 C 395.695312 441.007812 397.683594 441.324219 399.703125 441.566406 C 399.820312 441.578125 399.9375 441.585938 400.050781 441.585938 C 401.503906 441.585938 402.757812 440.5 402.933594 439.023438 C 403.121094 437.429688 401.984375 435.984375 400.390625 435.792969 C 398.519531 435.570312 396.6875 435.28125 394.886719 434.917969 C 394.691406 434.878906 394.5 434.859375 394.308594 434.859375 Z M 394.308594 434.859375 " fill-opacity="1" fill-rule="nonzero"/><path fill="#dedede" d="M 417.679688 431.179688 C 416.714844 431.179688 415.773438 431.660156 415.21875 432.535156 C 414.4375 433.773438 413.648438 435.03125 412.859375 436.296875 C 411.882812 436.328125 410.910156 436.34375 409.945312 436.34375 C 409.558594 436.34375 409.167969 436.34375 408.78125 436.335938 C 408.769531 436.335938 408.753906 436.335938 408.742188 436.335938 C 407.15625 436.335938 405.859375 437.613281 405.835938 439.203125 C 405.816406 440.808594 407.097656 442.125 408.703125 442.148438 C 409.117188 442.152344 409.53125 442.15625 409.945312 442.15625 C 411.234375 442.15625 412.527344 442.128906 413.832031 442.078125 L 413.835938 442.078125 C 414.109375 442.066406 414.40625 442.054688 414.679688 442.042969 L 414.695312 442.039062 C 415.84375 441.984375 416.804688 441.273438 417.226562 440.28125 L 417.226562 440.285156 C 418.195312 438.71875 419.167969 437.164062 420.132812 435.640625 C 420.988281 434.28125 420.585938 432.488281 419.226562 431.628906 C 418.746094 431.324219 418.207031 431.179688 417.679688 431.179688 Z M 417.679688 431.179688 " fill-opacity="1" fill-rule="nonzero"/><path fill="#dedede" d="M 410.078125 443.570312 C 409.085938 443.570312 408.117188 444.082031 407.574219 445 C 406.578125 446.683594 405.59375 448.375 404.621094 450.082031 C 403.824219 451.476562 404.308594 453.25 405.703125 454.046875 C 406.15625 454.304688 406.652344 454.429688 407.140625 454.429688 C 408.152344 454.429688 409.132812 453.902344 409.667969 452.960938 C 410.625 451.285156 411.59375 449.617188 412.578125 447.957031 C 413.394531 446.578125 412.9375 444.792969 411.554688 443.976562 C 411.089844 443.703125 410.582031 443.570312 410.078125 443.570312 Z M 410.078125 443.570312 " fill-opacity="1" fill-rule="nonzero"/><path fill="#dedede" d="M 402.925781 456.257812 C 401.886719 456.257812 400.882812 456.816406 400.363281 457.789062 L 400.363281 457.792969 L 400.355469 457.804688 C 399.433594 459.535156 398.527344 461.285156 397.65625 463.019531 C 396.933594 464.457031 397.515625 466.203125 398.949219 466.921875 C 399.367188 467.132812 399.8125 467.230469 400.25 467.230469 C 401.3125 467.230469 402.339844 466.644531 402.847656 465.628906 C 403.699219 463.9375 404.582031 462.238281 405.484375 460.542969 L 405.488281 460.53125 C 406.242188 459.117188 405.707031 457.355469 404.289062 456.601562 C 403.855469 456.371094 403.386719 456.257812 402.925781 456.257812 Z M 402.925781 456.257812 " fill-opacity="1" fill-rule="nonzero"/><path fill="#dedede" d="M 396.503906 469.296875 C 395.394531 469.296875 394.332031 469.9375 393.847656 471.015625 C 393.035156 472.835938 392.257812 474.652344 391.527344 476.457031 C 390.925781 477.945312 391.644531 479.640625 393.132812 480.242188 C 393.488281 480.386719 393.855469 480.453125 394.21875 480.453125 C 395.367188 480.453125 396.457031 479.769531 396.914062 478.636719 C 397.617188 476.902344 398.363281 475.152344 399.152344 473.390625 C 399.808594 471.925781 399.152344 470.207031 397.691406 469.550781 C 397.304688 469.378906 396.898438 469.296875 396.503906 469.296875 Z M 396.503906 469.296875 " fill-opacity="1" fill-rule="nonzero"/><path fill="#dedede" d="M 391.234375 482.808594 C 390.007812 482.808594 388.867188 483.589844 388.472656 484.820312 C 387.84375 486.761719 387.285156 488.679688 386.804688 490.582031 C 386.40625 492.136719 387.347656 493.71875 388.902344 494.113281 C 389.144531 494.171875 389.386719 494.203125 389.621094 494.203125 C 390.917969 494.203125 392.101562 493.328125 392.4375 492.011719 C 392.886719 490.246094 393.410156 488.441406 394 486.609375 C 394.496094 485.082031 393.65625 483.441406 392.128906 482.949219 C 391.832031 482.855469 391.53125 482.808594 391.234375 482.808594 Z M 391.234375 482.808594 " fill-opacity="1" fill-rule="nonzero"/><path fill="#dedede" d="M 387.585938 496.867188 C 386.289062 496.867188 385.105469 497.742188 384.773438 499.054688 C 384.285156 500.957031 383.789062 502.800781 383.28125 504.585938 C 382.839844 506.128906 383.734375 507.738281 385.277344 508.179688 C 385.542969 508.253906 385.8125 508.289062 386.074219 508.289062 C 387.339844 508.289062 388.503906 507.457031 388.867188 506.179688 C 389.394531 504.34375 389.90625 502.445312 390.402344 500.492188 C 390.800781 498.9375 389.859375 497.355469 388.304688 496.957031 C 388.066406 496.898438 387.824219 496.867188 387.585938 496.867188 Z M 387.585938 496.867188 " fill-opacity="1" fill-rule="nonzero"/><path fill="#dedede" d="M 383.476562 510.800781 C 382.269531 510.800781 381.140625 511.558594 380.726562 512.769531 C 380.09375 514.625 379.445312 516.40625 378.78125 518.117188 C 378.203125 519.613281 378.945312 521.296875 380.441406 521.875 C 380.789062 522.011719 381.140625 522.074219 381.492188 522.074219 C 382.65625 522.074219 383.753906 521.367188 384.203125 520.21875 C 384.894531 518.429688 385.570312 516.574219 386.226562 514.644531 C 386.746094 513.125 385.933594 511.472656 384.417969 510.957031 C 384.105469 510.851562 383.789062 510.800781 383.476562 510.800781 Z M 383.476562 510.800781 " fill-opacity="1" fill-rule="nonzero"/><path fill="#dedede" d="M 378.054688 524.269531 C 376.96875 524.269531 375.925781 524.878906 375.429688 525.925781 C 374.585938 527.6875 373.730469 529.351562 372.851562 530.929688 C 372.074219 532.332031 372.578125 534.101562 373.980469 534.882812 C 374.429688 535.128906 374.914062 535.246094 375.390625 535.246094 C 376.410156 535.246094 377.402344 534.707031 377.933594 533.753906 C 378.871094 532.066406 379.785156 530.292969 380.671875 528.425781 C 381.363281 526.976562 380.75 525.242188 379.300781 524.554688 C 378.898438 524.359375 378.472656 524.269531 378.054688 524.269531 Z M 378.054688 524.269531 " fill-opacity="1" fill-rule="nonzero"/><path fill="#dedede" d="M 370.746094 536.804688 C 369.839844 536.804688 368.953125 537.226562 368.382812 538.015625 C 367.261719 539.574219 366.117188 541.015625 364.949219 542.347656 C 363.890625 543.554688 364.015625 545.390625 365.222656 546.449219 C 365.773438 546.929688 366.457031 547.167969 367.132812 547.167969 C 367.941406 547.167969 368.746094 546.832031 369.320312 546.175781 C 370.613281 544.699219 371.875 543.113281 373.101562 541.40625 C 374.039062 540.105469 373.742188 538.289062 372.4375 537.351562 C 371.925781 536.984375 371.332031 536.804688 370.746094 536.804688 Z M 370.746094 536.804688 " fill-opacity="1" fill-rule="nonzero"/><path fill="#dedede" d="M 360.871094 547.40625 C 360.230469 547.40625 359.585938 547.617188 359.046875 548.050781 C 357.597656 549.226562 356.117188 550.265625 354.609375 551.191406 C 353.242188 552.035156 352.816406 553.824219 353.65625 555.191406 C 354.203125 556.082031 355.160156 556.574219 356.136719 556.574219 C 356.652344 556.574219 357.179688 556.4375 357.652344 556.144531 C 359.375 555.085938 361.054688 553.902344 362.699219 552.570312 C 363.949219 551.5625 364.144531 549.734375 363.132812 548.484375 C 362.558594 547.773438 361.71875 547.40625 360.871094 547.40625 Z M 360.871094 547.40625 " fill-opacity="1" fill-rule="nonzero"/><path fill="#dedede" d="M 276.234375 554.882812 C 276.21875 554.882812 276.199219 554.882812 276.179688 554.882812 L 276.121094 554.882812 C 274.136719 554.921875 272.148438 555.011719 270.15625 555.164062 C 268.554688 555.289062 267.359375 556.6875 267.484375 558.285156 C 267.601562 559.808594 268.875 560.96875 270.375 560.96875 C 270.453125 560.96875 270.527344 560.964844 270.601562 560.960938 C 272.472656 560.816406 274.347656 560.730469 276.234375 560.691406 L 276.238281 560.691406 C 277.84375 560.660156 279.117188 559.335938 279.085938 557.730469 C 279.054688 556.144531 277.757812 554.882812 276.234375 554.882812 Z M 276.234375 554.882812 " fill-opacity="1" fill-rule="nonzero"/><path fill="#dedede" d="M 284.894531 555.007812 C 283.347656 555.007812 282.0625 556.226562 281.992188 557.785156 C 281.921875 559.386719 283.160156 560.746094 284.765625 560.820312 C 286.664062 560.902344 288.582031 561.023438 290.484375 561.164062 C 290.558594 561.171875 290.632812 561.171875 290.703125 561.171875 C 292.210938 561.171875 293.484375 560.011719 293.597656 558.484375 C 293.71875 556.882812 292.519531 555.488281 290.917969 555.371094 C 288.96875 555.226562 286.992188 555.101562 285.027344 555.011719 C 284.980469 555.011719 284.9375 555.007812 284.894531 555.007812 Z M 284.894531 555.007812 " fill-opacity="1" fill-rule="nonzero"/><path fill="#dedede" d="M 348.296875 554.574219 C 347.960938 554.574219 347.617188 554.632812 347.285156 554.757812 C 345.578125 555.390625 343.839844 555.917969 342.0625 556.347656 C 340.503906 556.726562 339.546875 558.300781 339.925781 559.859375 C 340.25 561.1875 341.4375 562.078125 342.746094 562.078125 C 342.976562 562.078125 343.207031 562.050781 343.4375 561.996094 C 345.417969 561.511719 347.378906 560.921875 349.308594 560.203125 C 350.8125 559.644531 351.578125 557.972656 351.019531 556.464844 C 350.585938 555.296875 349.476562 554.574219 348.296875 554.574219 Z M 348.296875 554.574219 " fill-opacity="1" fill-rule="nonzero"/><path fill="#dedede" d="M 299.421875 556.132812 C 297.945312 556.132812 296.679688 557.253906 296.53125 558.753906 C 296.375 560.351562 297.542969 561.773438 299.140625 561.929688 C 299.679688 561.984375 300.117188 562.027344 300.652344 562.078125 C 301.363281 562.148438 302.101562 562.222656 302.8125 562.296875 C 303.507812 562.363281 304.261719 562.441406 304.957031 562.511719 C 305.054688 562.519531 305.152344 562.523438 305.25 562.523438 C 306.722656 562.523438 307.988281 561.40625 308.136719 559.90625 C 308.296875 558.308594 307.128906 556.886719 305.53125 556.726562 C 304.804688 556.652344 304.125 556.585938 303.390625 556.511719 C 302.664062 556.441406 301.960938 556.367188 301.230469 556.296875 C 300.667969 556.242188 300.269531 556.199219 299.707031 556.144531 C 299.613281 556.136719 299.515625 556.132812 299.421875 556.132812 Z M 299.421875 556.132812 " fill-opacity="1" fill-rule="nonzero"/><path fill="#dedede" d="M 261.757812 556.265625 C 261.582031 556.265625 261.402344 556.28125 261.222656 556.316406 C 259.375 556.65625 257.53125 557.070312 255.6875 557.558594 C 255.558594 557.59375 255.4375 557.625 255.308594 557.660156 C 253.757812 558.082031 252.84375 559.679688 253.265625 561.226562 C 253.613281 562.519531 254.789062 563.371094 256.066406 563.371094 C 256.320312 563.371094 256.574219 563.339844 256.828125 563.269531 C 256.945312 563.238281 257.066406 563.207031 257.183594 563.175781 C 258.875 562.726562 260.570312 562.347656 262.28125 562.03125 C 263.859375 561.738281 264.902344 560.222656 264.609375 558.644531 C 264.351562 557.246094 263.128906 556.265625 261.757812 556.265625 Z M 261.757812 556.265625 " fill-opacity="1" fill-rule="nonzero"/><path fill="#dedede" d="M 313.863281 557.503906 C 312.363281 557.503906 311.089844 558.65625 310.96875 560.179688 C 310.839844 561.777344 312.035156 563.179688 313.636719 563.304688 C 315.609375 563.460938 317.570312 563.59375 319.53125 563.691406 L 319.542969 563.691406 C 319.550781 563.691406 319.558594 563.695312 319.566406 563.695312 L 319.570312 563.695312 L 319.566406 563.695312 L 319.570312 563.695312 C 319.605469 563.695312 319.640625 563.695312 319.679688 563.695312 C 321.21875 563.695312 322.5 562.488281 322.578125 560.933594 C 322.65625 559.332031 321.425781 557.96875 319.789062 557.886719 L 319.816406 557.886719 C 317.929688 557.792969 316.023438 557.664062 314.09375 557.511719 C 314.015625 557.507812 313.9375 557.503906 313.863281 557.503906 Z M 313.863281 557.503906 " fill-opacity="1" fill-rule="nonzero"/><path fill="#dedede" d="M 334.167969 557.679688 C 334.074219 557.679688 333.980469 557.6875 333.886719 557.695312 C 332.0625 557.871094 330.203125 557.972656 328.320312 558.019531 C 326.714844 558.058594 325.445312 559.390625 325.484375 560.996094 C 325.523438 562.578125 326.816406 563.832031 328.390625 563.832031 C 328.414062 563.832031 328.4375 563.832031 328.460938 563.832031 C 330.46875 563.78125 332.460938 563.667969 334.441406 563.480469 C 336.039062 563.328125 337.210938 561.90625 337.058594 560.3125 C 336.914062 558.808594 335.648438 557.679688 334.167969 557.679688 Z M 334.167969 557.679688 " fill-opacity="1" fill-rule="nonzero"/><path fill="#dedede" d="M 247.828125 560.386719 C 247.449219 560.386719 247.066406 560.464844 246.695312 560.621094 C 244.757812 561.445312 242.925781 562.339844 241.195312 563.304688 C 239.792969 564.089844 239.292969 565.859375 240.074219 567.257812 C 240.605469 568.214844 241.59375 568.75 242.613281 568.75 C 243.09375 568.75 243.578125 568.632812 244.027344 568.382812 C 245.570312 567.519531 247.214844 566.714844 248.964844 565.96875 C 250.445312 565.34375 251.132812 563.636719 250.503906 562.160156 C 250.035156 561.054688 248.960938 560.386719 247.828125 560.386719 Z M 247.828125 560.386719 " fill-opacity="1" fill-rule="nonzero"/><path fill="#dedede" d="M 235.417969 567.835938 C 234.761719 567.835938 234.101562 568.058594 233.554688 568.507812 C 231.929688 569.847656 230.425781 571.257812 229.03125 572.730469 C 227.929688 573.898438 227.980469 575.738281 229.148438 576.839844 C 229.707031 577.371094 230.425781 577.632812 231.144531 577.632812 C 231.914062 577.632812 232.683594 577.328125 233.253906 576.722656 C 234.492188 575.417969 235.820312 574.167969 237.257812 572.984375 L 237.273438 572.972656 C 238.5 571.953125 238.671875 570.128906 237.65625 568.894531 C 237.082031 568.199219 236.253906 567.835938 235.417969 567.835938 Z M 235.417969 567.835938 " fill-opacity="1" fill-rule="nonzero"/><path fill="#dedede" d="M 225.761719 578.632812 C 224.816406 578.632812 223.894531 579.089844 223.335938 579.933594 C 222.207031 581.636719 221.179688 583.382812 220.234375 585.167969 C 219.484375 586.585938 220.023438 588.347656 221.441406 589.097656 C 221.875 589.328125 222.339844 589.433594 222.800781 589.433594 C 223.84375 589.433594 224.847656 588.875 225.371094 587.890625 C 226.234375 586.257812 227.167969 584.671875 228.179688 583.144531 C 229.066406 581.804688 228.699219 580 227.363281 579.117188 C 226.867188 578.789062 226.3125 578.632812 225.761719 578.632812 Z M 225.761719 578.632812 " fill-opacity="1" fill-rule="nonzero"/><path fill="#dedede" d="M 219.203125 591.550781 C 218.039062 591.550781 216.941406 592.253906 216.492188 593.402344 C 215.769531 595.257812 215.101562 597.136719 214.480469 599.023438 C 213.980469 600.546875 214.808594 602.1875 216.332031 602.691406 C 216.632812 602.789062 216.941406 602.835938 217.242188 602.835938 C 218.460938 602.835938 219.597656 602.0625 220 600.839844 C 220.59375 599.039062 221.226562 597.261719 221.90625 595.515625 C 222.492188 594.019531 221.753906 592.335938 220.257812 591.75 C 219.910156 591.617188 219.554688 591.550781 219.203125 591.550781 Z M 219.203125 591.550781 " fill-opacity="1" fill-rule="nonzero"/><path fill="#dedede" d="M 214.742188 605.402344 C 213.464844 605.402344 212.296875 606.25 211.941406 607.542969 C 211.421875 609.4375 210.929688 611.332031 210.441406 613.207031 C 210.042969 614.757812 210.976562 616.34375 212.527344 616.746094 C 212.773438 616.808594 213.019531 616.839844 213.257812 616.839844 C 214.550781 616.839844 215.730469 615.972656 216.070312 614.660156 C 216.554688 612.792969 217.039062 610.933594 217.546875 609.078125 C 217.972656 607.527344 217.058594 605.929688 215.511719 605.507812 C 215.253906 605.4375 214.996094 605.402344 214.742188 605.402344 Z M 214.742188 605.402344 " fill-opacity="1" fill-rule="nonzero"/><path fill="#dedede" d="M 211.058594 619.453125 C 209.777344 619.453125 208.605469 620.308594 208.253906 621.605469 C 207.75 623.480469 207.234375 625.320312 206.691406 627.121094 C 206.230469 628.65625 207.097656 630.277344 208.636719 630.742188 C 208.914062 630.824219 209.199219 630.867188 209.476562 630.867188 C 210.722656 630.867188 211.878906 630.054688 212.257812 628.796875 C 212.820312 626.925781 213.351562 625.027344 213.867188 623.113281 C 214.285156 621.566406 213.367188 619.972656 211.816406 619.554688 C 211.5625 619.484375 211.308594 619.453125 211.058594 619.453125 Z M 211.058594 619.453125 " fill-opacity="1" fill-rule="nonzero"/><path fill="#dedede" d="M 206.636719 633.285156 C 205.484375 633.285156 204.394531 633.976562 203.9375 635.113281 C 203.234375 636.871094 202.476562 638.554688 201.652344 640.152344 C 200.914062 641.578125 201.472656 643.328125 202.898438 644.066406 C 203.324219 644.289062 203.78125 644.390625 204.230469 644.390625 C 205.28125 644.390625 206.296875 643.820312 206.8125 642.820312 C 207.738281 641.03125 208.570312 639.175781 209.332031 637.273438 C 209.929688 635.785156 209.207031 634.09375 207.714844 633.496094 C 207.363281 633.355469 206.996094 633.285156 206.636719 633.285156 Z M 206.636719 633.285156 " fill-opacity="1" fill-rule="nonzero"/><path fill="#dedede" d="M 199.511719 645.855469 C 198.671875 645.855469 197.839844 646.21875 197.265625 646.917969 C 196.140625 648.28125 194.914062 649.542969 193.566406 650.683594 C 192.339844 651.722656 192.1875 653.554688 193.226562 654.78125 C 193.800781 655.460938 194.621094 655.808594 195.445312 655.808594 C 196.109375 655.808594 196.777344 655.582031 197.320312 655.121094 C 198.953125 653.738281 200.425781 652.226562 201.753906 650.605469 C 202.773438 649.367188 202.59375 647.535156 201.355469 646.515625 C 200.8125 646.070312 200.160156 645.855469 199.511719 645.855469 Z M 199.511719 645.855469 " fill-opacity="1" fill-rule="nonzero"/><g clip-path="url(#d42d97d5b5)"><g clip-path="url(#41445c98e4)"><g clip-path="url(#6da2746f87)"><path fill="#dcdcdc" d="M 239.179688 392.355469 L 236.390625 387.171875 L 250.601562 375.523438 L 246.378906 372.660156 L 230.378906 379.703125 C 225.246094 372.878906 206.917969 361.039062 198.402344 355.261719 L 235.902344 317.667969 L 228.691406 312.777344 L 175.90625 339.738281 C 175.90625 339.738281 166.933594 333.90625 158.023438 327.601562 C 149.113281 321.296875 136.949219 318.269531 134.703125 321.453125 C 132.570312 324.71875 139.878906 334.902344 149.03125 340.855469 C 158.179688 346.808594 166.910156 352.992188 166.910156 352.992188 L 161.355469 412 L 168.566406 416.898438 L 189.644531 368.164062 C 198.164062 373.941406 215.933594 386.601562 224.171875 388.851562 L 223.535156 406.320312 L 227.757812 409.183594 L 233.332031 391.679688 Z M 239.179688 392.355469 " fill-opacity="1" fill-rule="evenodd"/></g></g></g><g clip-path="url(#350ec03c05)"><g clip-path="url(#7abdc0807e)"><g clip-path="url(#16ad48903c)"><path fill="#dedede" d="M 243.820312 397.53125 C 246.085938 398.824219 248.355469 400.121094 250.632812 401.382812 L 252.539062 397.976562 C 250.273438 396.710938 248.015625 395.429688 245.761719 394.140625 Z M 267.820312 410.730469 C 270.128906 411.949219 272.441406 413.15625 274.761719 414.347656 L 276.546875 410.875 C 274.238281 409.6875 271.9375 408.492188 269.640625 407.277344 Z M 292.292969 423.054688 C 294.648438 424.179688 297.011719 425.292969 299.378906 426.390625 L 301.019531 422.847656 C 298.664062 421.757812 296.316406 420.652344 293.976562 419.53125 Z M 317.285156 434.320312 C 319.691406 435.335938 322.109375 436.335938 324.53125 437.3125 L 325.988281 433.691406 C 323.582031 432.722656 321.1875 431.730469 318.800781 430.726562 Z M 342.863281 444.25 C 345.324219 445.121094 347.808594 445.980469 350.292969 446.785156 L 351.507812 443.074219 C 349.050781 442.28125 346.59375 441.429688 344.160156 440.566406 Z M 369.109375 452.382812 C 371.648438 453.046875 374.1875 453.683594 376.742188 454.277344 L 377.621094 450.476562 C 375.101562 449.890625 372.597656 449.261719 370.097656 448.609375 Z M 396.085938 457.933594 C 398.691406 458.296875 401.300781 458.617188 403.921875 458.867188 L 404.289062 454.980469 C 401.722656 454.734375 399.171875 454.421875 396.617188 454.066406 Z M 423.691406 459.464844 C 424.285156 459.4375 424.878906 459.40625 425.472656 459.375 L 426.746094 459.289062 L 427.382812 459.242188 L 428.648438 459.140625 L 429.902344 459.023438 C 430.472656 458.960938 431.039062 458.902344 431.609375 458.835938 L 431.148438 454.960938 C 429.996094 455.09375 428.847656 455.207031 427.695312 455.304688 C 426.296875 455.414062 424.90625 455.503906 423.503906 455.566406 Z M 451.03125 454.363281 L 451.796875 454.082031 L 452.347656 453.871094 L 452.898438 453.65625 L 453.445312 453.4375 L 454.53125 452.984375 L 455.609375 452.515625 L 456.140625 452.273438 L 456.675781 452.03125 L 457.203125 451.777344 L 457.730469 451.527344 L 458.410156 451.191406 L 456.636719 447.710938 L 456.019531 448.015625 L 455.027344 448.492188 L 454.523438 448.722656 L 454.019531 448.949219 L 453.003906 449.394531 L 452.492188 449.609375 L 451.976562 449.820312 L 451.457031 450.027344 L 450.941406 450.230469 L 450.417969 450.425781 L 449.679688 450.703125 Z M 474.683594 439.472656 L 475.300781 438.84375 L 475.714844 438.410156 L 476.128906 437.96875 L 476.539062 437.527344 L 476.949219 437.078125 L 477.753906 436.164062 L 478.152344 435.699219 L 478.933594 434.753906 L 479.324219 434.273438 L 479.707031 433.789062 L 479.992188 433.421875 L 476.890625 431.050781 L 476.632812 431.378906 L 476.273438 431.835938 L 475.910156 432.289062 L 475.542969 432.734375 L 475.171875 433.175781 L 474.800781 433.613281 L 474.042969 434.472656 L 473.277344 435.308594 L 472.890625 435.722656 L 472.496094 436.128906 L 471.90625 436.726562 Z M 489.859375 415.996094 L 490.15625 415.183594 L 490.402344 414.464844 L 490.644531 413.75 L 490.871094 413.035156 L 491.089844 412.320312 L 491.292969 411.605469 L 491.492188 410.890625 L 491.675781 410.175781 L 491.851562 409.464844 L 492.015625 408.753906 L 492.128906 408.234375 L 488.308594 407.429688 L 488.207031 407.898438 L 488.054688 408.558594 L 487.890625 409.21875 L 487.71875 409.882812 L 487.539062 410.546875 L 487.347656 411.210938 L 487.140625 411.875 L 486.929688 412.542969 L 486.710938 413.207031 L 486.476562 413.878906 L 486.199219 414.640625 Z M 492.457031 388.089844 L 492.320312 387.375 L 492.1875 386.71875 L 492.042969 386.0625 L 491.894531 385.410156 L 491.734375 384.761719 L 491.570312 384.113281 L 491.394531 383.46875 L 491.210938 382.828125 L 491.023438 382.191406 L 490.824219 381.554688 L 490.617188 380.921875 L 490.386719 380.242188 L 486.714844 381.5625 L 486.914062 382.152344 L 487.101562 382.738281 L 487.285156 383.328125 L 487.464844 383.921875 L 487.632812 384.515625 L 487.792969 385.113281 L 487.949219 385.710938 L 488.09375 386.3125 L 488.234375 386.914062 L 488.367188 387.523438 L 488.488281 388.128906 L 488.617188 388.796875 Z M 480.53125 362.742188 L 480.367188 362.539062 L 479.941406 362.027344 L 479.515625 361.523438 L 479.082031 361.023438 L 478.199219 360.039062 L 477.75 359.558594 L 477.292969 359.078125 L 476.835938 358.601562 L 476.371094 358.132812 L 475.902344 357.664062 L 475.429688 357.203125 L 475.050781 356.84375 L 472.375 359.6875 L 472.722656 360.015625 L 473.167969 360.449219 L 473.609375 360.886719 L 474.042969 361.328125 L 474.472656 361.773438 L 474.898438 362.222656 L 475.320312 362.679688 L 475.738281 363.136719 L 476.144531 363.601562 L 476.554688 364.070312 L 476.953125 364.539062 L 477.351562 365.015625 L 477.515625 365.21875 Z M 458.480469 345.53125 L 458.050781 345.332031 L 457.453125 345.058594 L 456.847656 344.792969 L 456.242188 344.535156 L 455.636719 344.28125 L 455.023438 344.035156 L 454.410156 343.796875 L 453.792969 343.5625 L 453.175781 343.335938 L 452.554688 343.117188 L 451.929688 342.902344 L 451.308594 342.699219 L 450.980469 342.59375 L 449.820312 346.320312 L 450.109375 346.414062 L 450.691406 346.605469 L 451.273438 346.804688 L 451.855469 347.007812 L 452.433594 347.222656 L 453.007812 347.4375 L 453.585938 347.664062 L 454.152344 347.894531 L 454.722656 348.128906 L 455.292969 348.375 L 455.855469 348.621094 L 456.417969 348.875 L 456.84375 349.078125 Z M 431.015625 340.03125 L 430.515625 340.066406 L 429.855469 340.117188 L 429.191406 340.171875 L 428.53125 340.242188 L 427.867188 340.316406 L 427.207031 340.402344 L 426.546875 340.496094 L 425.882812 340.597656 L 425.222656 340.710938 L 424.5625 340.832031 L 423.902344 340.960938 L 423.246094 341.101562 L 422.984375 341.160156 L 423.867188 344.960938 L 424.074219 344.914062 L 424.683594 344.789062 L 425.289062 344.667969 L 425.898438 344.554688 L 426.507812 344.453125 L 427.117188 344.359375 L 427.730469 344.273438 L 428.339844 344.191406 L 428.953125 344.121094 L 429.5625 344.058594 L 430.175781 344.003906 L 430.789062 343.960938 L 431.285156 343.925781 Z M 404.574219 349.371094 L 404.125 349.6875 L 403.523438 350.128906 L 402.921875 350.582031 L 402.324219 351.042969 L 401.730469 351.515625 L 401.136719 351.996094 L 400.546875 352.488281 L 399.964844 352.992188 L 399.382812 353.507812 L 398.804688 354.03125 L 398.335938 354.46875 L 401.015625 357.308594 L 401.449219 356.90625 L 401.988281 356.417969 L 402.53125 355.933594 L 403.078125 355.464844 L 403.625 355.003906 L 404.175781 354.554688 L 404.730469 354.117188 L 405.289062 353.6875 L 405.84375 353.265625 L 406.40625 352.855469 L 406.855469 352.539062 Z M 386.191406 370.515625 L 386.101562 370.695312 L 385.773438 371.390625 L 385.460938 372.085938 L 385.160156 372.785156 L 384.875 373.484375 L 384.605469 374.1875 L 384.34375 374.894531 L 384.101562 375.597656 L 383.867188 376.308594 L 383.648438 377.015625 L 383.445312 377.730469 L 383.324219 378.167969 L 387.105469 379.152344 L 387.203125 378.777344 L 387.390625 378.132812 L 387.589844 377.488281 L 387.800781 376.847656 L 388.023438 376.203125 L 388.257812 375.566406 L 388.503906 374.925781 L 388.765625 374.289062 L 389.039062 373.652344 L 389.320312 373.019531 L 389.621094 372.382812 L 389.707031 372.207031 Z M 382.671875 398.367188 L 382.777344 398.976562 L 382.921875 399.726562 L 383.074219 400.476562 L 383.238281 401.230469 L 383.410156 401.988281 L 383.589844 402.742188 L 383.785156 403.496094 L 383.984375 404.253906 L 384.195312 405.015625 L 384.417969 405.773438 L 384.535156 406.171875 L 388.269531 405.03125 L 388.160156 404.671875 L 387.953125 403.949219 L 387.753906 403.230469 L 387.5625 402.515625 L 387.378906 401.804688 L 387.210938 401.09375 L 387.046875 400.382812 L 386.894531 399.675781 L 386.753906 398.972656 L 386.617188 398.269531 L 386.507812 397.660156 Z M 392.226562 424.484375 L 392.601562 425.191406 L 393.023438 425.984375 L 393.453125 426.78125 L 393.890625 427.578125 L 394.332031 428.378906 L 394.78125 429.175781 L 395.238281 429.976562 L 395.699219 430.78125 L 396.046875 431.382812 L 399.417969 429.414062 L 399.078125 428.828125 L 398.179688 427.257812 L 397.742188 426.476562 L 397.308594 425.695312 L 396.878906 424.914062 L 396.460938 424.136719 L 396.050781 423.363281 L 395.675781 422.652344 Z M 406.59375 447.957031 C 408.066406 450.117188 409.554688 452.265625 411.058594 454.402344 L 414.25 452.152344 C 412.761719 450.035156 411.28125 447.90625 409.824219 445.761719 Z M 422.492188 470.265625 L 427.101562 476.5625 L 430.25 474.257812 C 428.714844 472.160156 427.175781 470.058594 425.640625 467.960938 Z M 438.535156 492.347656 C 440.039062 494.460938 441.542969 496.582031 443.019531 498.710938 L 446.230469 496.488281 C 444.742188 494.34375 443.230469 492.210938 441.71875 490.085938 Z M 453.855469 514.859375 C 454.902344 516.492188 455.9375 518.136719 456.960938 519.78125 L 457.980469 521.4375 L 461.3125 519.398438 L 460.277344 517.722656 C 459.242188 516.0625 458.203125 514.402344 457.140625 512.753906 Z M 467.601562 538.269531 L 468.414062 539.820312 L 468.941406 540.84375 L 469.464844 541.871094 L 469.980469 542.894531 L 470.492188 543.925781 L 471.105469 545.171875 L 474.621094 543.476562 L 473.992188 542.191406 L 473.472656 541.148438 L 472.945312 540.105469 L 472.414062 539.0625 L 471.878906 538.027344 L 471.058594 536.457031 Z M 478.773438 562.90625 L 479.125 563.847656 L 479.515625 564.914062 L 479.898438 565.988281 L 480.277344 567.058594 L 480.644531 568.132812 L 481.003906 569.210938 L 481.332031 570.199219 L 485.046875 568.996094 L 484.710938 567.976562 L 484.339844 566.878906 L 483.964844 565.777344 L 483.578125 564.683594 L 483.1875 563.585938 L 482.789062 562.496094 L 482.4375 561.554688 Z M 486.097656 588.785156 L 486.261719 589.820312 L 486.414062 590.847656 L 486.546875 591.863281 L 486.664062 592.863281 L 486.765625 593.855469 L 486.851562 594.832031 L 486.921875 595.796875 L 486.953125 596.339844 L 490.851562 596.148438 L 490.816406 595.542969 L 490.742188 594.519531 L 490.652344 593.484375 L 490.542969 592.4375 L 490.421875 591.378906 L 490.277344 590.308594 L 490.121094 589.230469 L 489.953125 588.191406 Z M 484.515625 614.734375 L 484.304688 615.28125 L 484.035156 615.945312 L 483.753906 616.601562 L 483.460938 617.246094 L 483.15625 617.875 L 482.839844 618.5 L 482.511719 619.109375 L 482.175781 619.710938 L 481.828125 620.296875 L 481.46875 620.878906 L 481.183594 621.316406 L 484.433594 623.476562 L 484.765625 622.96875 L 485.167969 622.320312 L 485.558594 621.660156 L 485.9375 620.988281 L 486.300781 620.300781 L 486.65625 619.605469 L 486.996094 618.902344 L 487.324219 618.183594 L 487.636719 617.453125 L 487.9375 616.710938 L 488.144531 616.164062 Z M 467.316406 633.125 L 466.957031 633.292969 L 466.332031 633.578125 L 465.703125 633.851562 L 465.0625 634.113281 L 464.414062 634.367188 L 463.765625 634.613281 L 463.105469 634.847656 L 462.441406 635.074219 L 461.769531 635.292969 L 461.09375 635.5 L 460.324219 635.722656 L 461.328125 639.492188 L 462.207031 639.242188 L 462.941406 639.015625 L 463.671875 638.78125 L 464.394531 638.535156 L 465.109375 638.277344 L 465.820312 638.011719 L 466.523438 637.734375 L 467.222656 637.445312 L 467.914062 637.144531 L 468.597656 636.835938 L 468.957031 636.664062 Z M 441.601562 637.640625 L 441.03125 637.613281 L 440.242188 637.566406 L 439.449219 637.507812 L 438.660156 637.441406 L 437.863281 637.363281 L 437.070312 637.28125 L 436.273438 637.191406 L 435.476562 637.085938 L 434.679688 636.976562 L 434.027344 636.882812 L 433.433594 640.738281 L 434.125 640.839844 L 434.960938 640.957031 L 435.800781 641.0625 L 436.640625 641.160156 L 437.476562 641.25 L 438.3125 641.328125 L 439.148438 641.398438 L 439.980469 641.460938 L 440.8125 641.507812 L 441.382812 641.539062 Z M 415.699219 631.8125 L 414.871094 631.46875 L 414.101562 631.144531 L 413.339844 630.808594 L 412.574219 630.464844 L 411.816406 630.117188 L 411.0625 629.757812 L 410.308594 629.390625 L 409.5625 629.019531 L 408.792969 628.625 L 406.957031 632.066406 L 407.796875 632.5 L 408.582031 632.890625 L 409.371094 633.277344 L 410.160156 633.652344 L 410.957031 634.019531 L 411.753906 634.375 L 412.558594 634.730469 L 413.363281 635.070312 L 414.226562 635.425781 Z M 393.1875 617.824219 L 392.566406 617.25 L 391.972656 616.683594 L 391.382812 616.117188 L 390.804688 615.539062 L 390.230469 614.957031 L 389.667969 614.367188 L 389.113281 613.765625 L 388.566406 613.164062 L 388.03125 612.554688 L 387.917969 612.421875 L 384.9375 614.941406 L 385.082031 615.113281 L 385.65625 615.761719 L 386.234375 616.40625 L 386.828125 617.039062 L 387.425781 617.667969 L 388.03125 618.285156 L 388.644531 618.898438 L 389.269531 619.503906 L 389.898438 620.101562 L 390.558594 620.707031 Z M 378.207031 596.378906 L 378.058594 595.996094 L 377.78125 595.230469 L 377.515625 594.457031 L 377.261719 593.679688 L 377.019531 592.898438 L 376.789062 592.105469 L 376.570312 591.308594 L 376.367188 590.507812 L 376.175781 589.699219 L 376.0625 589.1875 L 372.242188 589.988281 L 372.367188 590.570312 L 372.578125 591.441406 L 372.796875 592.304688 L 373.03125 593.164062 L 373.277344 594.015625 L 373.539062 594.863281 L 373.8125 595.703125 L 374.101562 596.535156 L 374.402344 597.359375 L 374.550781 597.746094 Z M 375.503906 570.464844 L 375.648438 569.523438 L 375.808594 568.574219 L 375.988281 567.625 L 376.179688 566.664062 L 376.390625 565.703125 L 376.617188 564.734375 L 376.867188 563.757812 L 377.050781 563.066406 L 373.289062 562.027344 L 373.085938 562.777344 L 372.828125 563.8125 L 372.585938 564.839844 L 372.359375 565.859375 L 372.15625 566.878906 L 371.964844 567.890625 L 371.796875 568.898438 L 371.640625 569.90625 Z M 384.351562 545.683594 L 384.890625 544.835938 L 385.476562 543.960938 L 386.078125 543.113281 L 386.695312 542.285156 L 387.324219 541.480469 L 387.96875 540.699219 L 388.628906 539.941406 L 388.828125 539.722656 L 385.984375 537.050781 L 385.714844 537.339844 L 384.988281 538.175781 L 384.28125 539.03125 L 383.589844 539.914062 L 382.917969 540.820312 L 382.261719 541.75 L 381.621094 542.703125 L 381.082031 543.546875 Z M 404.089844 529.375 L 404.722656 529.132812 L 405.671875 528.796875 L 406.625 528.480469 L 407.59375 528.183594 L 408.578125 527.902344 L 409.574219 527.640625 L 410.578125 527.394531 L 411.296875 527.234375 L 410.484375 523.417969 L 409.695312 523.59375 L 408.613281 523.855469 L 407.542969 524.136719 L 406.484375 524.441406 L 405.4375 524.761719 L 404.402344 525.105469 L 403.378906 525.46875 L 402.742188 525.710938 Z M 430.199219 525.898438 L 430.644531 525.917969 L 431.855469 525.992188 L 433.078125 526.078125 L 434.308594 526.183594 L 435.550781 526.300781 L 436.800781 526.433594 L 437.839844 526.554688 L 438.320312 522.683594 L 437.234375 522.554688 L 435.945312 522.414062 L 434.660156 522.296875 L 433.382812 522.1875 L 432.113281 522.097656 L 430.855469 522.019531 L 430.410156 522 Z M 456.738281 530.199219 L 457.847656 530.484375 L 459.222656 530.847656 L 460.601562 531.226562 L 461.984375 531.617188 L 463.378906 532.019531 L 464.195312 532.261719 L 465.316406 528.519531 L 464.472656 528.269531 L 463.054688 527.863281 L 461.644531 527.464844 L 460.238281 527.082031 L 458.835938 526.707031 L 457.726562 526.421875 Z M 482.535156 538.492188 L 483.335938 538.800781 L 484.792969 539.359375 L 486.25 539.929688 L 487.710938 540.511719 L 489.175781 541.101562 L 489.753906 541.335938 L 491.234375 537.722656 L 490.640625 537.480469 L 489.160156 536.886719 L 487.679688 536.296875 L 486.207031 535.722656 L 484.734375 535.152344 L 483.929688 534.847656 Z M 507.546875 549.117188 L 508.375 549.503906 L 509.859375 550.203125 L 511.34375 550.90625 L 512.828125 551.617188 L 514.566406 552.457031 L 516.28125 548.953125 L 514.523438 548.101562 L 513.023438 547.382812 L 511.527344 546.671875 L 510.027344 545.96875 L 509.203125 545.582031 Z M 531.898438 561.285156 L 533.566406 562.171875 L 535.039062 562.960938 L 536.507812 563.753906 L 538.75 564.976562 L 540.628906 561.554688 L 538.367188 560.320312 L 536.890625 559.523438 L 535.410156 558.730469 L 533.734375 557.835938 Z M 555.691406 574.554688 C 557.929688 575.867188 560.167969 577.1875 562.398438 578.515625 L 564.40625 575.164062 C 562.167969 573.824219 559.914062 572.503906 557.664062 571.1875 Z M 579.003906 588.6875 C 581.199219 590.070312 583.394531 591.457031 585.582031 592.859375 L 587.691406 589.574219 C 585.492188 588.167969 583.289062 586.773438 581.082031 585.386719 Z M 601.886719 603.519531 C 604.046875 604.960938 606.203125 606.414062 608.351562 607.871094 L 610.542969 604.640625 C 608.386719 603.179688 606.226562 601.722656 604.054688 600.273438 Z M 624.371094 618.957031 C 626.492188 620.457031 628.609375 621.964844 630.71875 623.476562 L 632.996094 620.304688 C 630.875 618.785156 628.75 617.277344 626.621094 615.769531 Z M 646.429688 634.988281 C 648.496094 636.539062 650.582031 638.09375 652.617188 639.691406 L 655.015625 636.609375 C 652.964844 635 650.859375 633.429688 648.773438 631.863281 Z M 646.429688 634.988281 " fill-opacity="1" fill-rule="nonzero"/></g></g></g><g clip-path="url(#0401bc8c54)"><path fill="#a5a5a5" d="M 350.808594 272.394531 C 351.390625 269.804688 351.507812 267.25 350.691406 265.011719 C 350.097656 263.378906 348.84375 262.253906 347.28125 261.46875 C 345.359375 260.5 342.957031 260.066406 341.144531 259.597656 C 340.910156 259.535156 340.671875 259.546875 340.457031 259.617188 C 339.347656 259.335938 338.242188 259.03125 337.132812 258.722656 L 345.417969 228.960938 C 345.867188 227.25 347.238281 224.136719 347.828125 221.535156 C 348.1875 219.9375 348.226562 218.5 347.828125 217.515625 C 347.523438 216.757812 346.75 216.109375 345.6875 215.671875 C 344.355469 215.128906 342.523438 214.863281 341.515625 214.601562 L 342.03125 212.726562 C 342.074219 212.652344 342.132812 212.585938 342.160156 212.5 C 342.226562 212.296875 342.222656 212.09375 342.1875 211.898438 C 342.171875 211.371094 341.839844 210.890625 341.304688 210.738281 C 341.109375 210.683594 340.914062 210.691406 340.726562 210.730469 L 322.464844 204.855469 C 322.113281 204.730469 321.746094 204.789062 321.445312 204.964844 C 320.820312 204.859375 320.203125 205.230469 320.042969 205.855469 L 319.753906 206.957031 C 318.664062 206.609375 317.488281 206.175781 316.328125 206.050781 C 315.589844 205.972656 314.855469 206.007812 314.152344 206.21875 C 313.3125 206.472656 312.632812 206.980469 312.085938 207.640625 C 311.421875 208.445312 310.96875 209.488281 310.628906 210.40625 L 307.546875 220.707031 C 305.851562 226.652344 303.617188 232.476562 301.738281 238.382812 C 301.003906 240.691406 300.335938 243.015625 299.761719 245.359375 C 296.878906 244.132812 293.4375 242.507812 290.207031 241.929688 C 288.109375 241.550781 286.097656 241.605469 284.339844 242.355469 C 282.132812 243.289062 279.484375 247.902344 277.128906 253.921875 C 273.105469 264.195312 269.410156 278.511719 268.070312 282.710938 L 256.128906 320.5625 C 255.222656 323.652344 253.28125 327.402344 252.652344 330.984375 C 252.335938 332.777344 252.339844 334.539062 252.863281 336.179688 C 253.6875 338.761719 255.714844 340.707031 258.242188 342.199219 C 260.265625 343.394531 262.609375 344.300781 264.785156 345.082031 C 264.375 346.570312 263.929688 348.171875 263.746094 349.769531 C 263.585938 351.179688 263.632812 352.574219 264.035156 353.890625 C 264.90625 356.726562 266.542969 357.054688 268.015625 356.523438 C 269.675781 355.925781 271.457031 353.515625 271.960938 351.824219 L 273.074219 348.128906 C 277.632812 349.796875 282.222656 351.34375 286.84375 352.78125 C 291.152344 354.121094 295.496094 355.347656 299.855469 356.523438 C 299.449219 357.773438 299.058594 359.164062 298.929688 360.542969 C 298.816406 361.742188 298.902344 362.925781 299.292969 364.011719 C 299.828125 365.5 300.945312 366.535156 302.1875 366.917969 C 303.53125 367.332031 305.054688 367.042969 306.269531 365.675781 C 306.824219 365.050781 307.246094 364.328125 307.578125 363.542969 C 308.164062 362.160156 308.460938 360.59375 308.851562 359.1875 L 313 360.609375 C 316.019531 361.25 318.664062 359.300781 320.761719 355.964844 C 324.210938 350.476562 326.347656 341.246094 327.535156 337.910156 L 333.070312 323.050781 C 335.191406 317.660156 337.195312 312.230469 339.128906 306.773438 C 342.027344 298.605469 344.769531 290.378906 347.507812 282.144531 C 348.433594 279.359375 350.03125 275.84375 350.808594 272.394531 Z M 321.167969 211.261719 L 322.199219 207.359375 L 339.421875 212.902344 L 338.316406 216.9375 Z M 313.789062 209.484375 C 314.0625 209.082031 314.390625 208.726562 314.859375 208.582031 C 315.394531 208.421875 315.960938 208.464844 316.523438 208.574219 C 317.410156 208.742188 318.292969 209.074219 319.121094 209.339844 L 318.515625 211.636719 C 318.335938 212.296875 318.722656 212.972656 319.382812 213.152344 C 319.492188 213.183594 319.601562 213.175781 319.707031 213.175781 C 319.863281 213.351562 320.054688 213.503906 320.300781 213.570312 L 338.714844 219.664062 C 339.085938 219.769531 339.453125 219.675781 339.746094 219.46875 C 340.054688 219.316406 340.300781 219.042969 340.394531 218.683594 L 340.863281 216.972656 C 341.710938 217.183594 343.0625 217.394531 344.238281 217.773438 C 344.816406 217.957031 345.390625 218.066406 345.542969 218.441406 C 345.796875 219.066406 345.648438 219.976562 345.417969 220.992188 C 344.839844 223.566406 343.472656 226.644531 343.027344 228.335938 L 334.769531 258.027344 C 332.144531 257.246094 329.53125 256.394531 326.929688 255.492188 C 327.472656 253.84375 328.394531 251.867188 328.605469 250.007812 C 328.738281 248.847656 328.613281 247.734375 328.097656 246.734375 C 327.832031 246.21875 327.429688 245.824219 326.945312 245.523438 C 326.191406 245.054688 325.175781 244.855469 324.398438 244.609375 C 322.660156 244.066406 319.648438 242.773438 317.140625 242.605469 C 315.636719 242.503906 314.292969 242.796875 313.3125 243.613281 C 312.640625 244.179688 312.164062 244.976562 311.84375 245.902344 C 311.4375 247.078125 311.300781 248.476562 311.164062 249.671875 C 308.125 248.519531 305.09375 247.371094 302.070312 246.277344 C 302.648438 243.875 303.335938 241.496094 304.089844 239.128906 C 305.976562 233.203125 308.21875 227.351562 309.921875 221.382812 L 312.945312 211.261719 C 313.160156 210.683594 313.417969 210.035156 313.789062 209.484375 Z M 313.527344 250.570312 C 313.652344 249.570312 313.742188 248.363281 314.011719 247.269531 C 314.1875 246.566406 314.417969 245.910156 314.898438 245.503906 C 315.617188 244.902344 316.71875 244.980469 317.875 245.179688 C 319.980469 245.542969 322.261719 246.527344 323.660156 246.964844 C 324.132812 247.113281 324.710938 247.226562 325.238281 247.425781 C 325.503906 247.527344 325.777344 247.625 325.90625 247.871094 C 326.308594 248.648438 326.234375 249.546875 326.027344 250.460938 C 325.707031 251.917969 325.046875 253.390625 324.601562 254.679688 C 320.894531 253.359375 317.203125 251.964844 313.527344 250.570312 Z M 279.425781 254.824219 C 281.457031 249.625 283.394531 245.433594 285.304688 244.625 C 287.085938 243.867188 289.207031 244.125 291.363281 244.726562 C 294.828125 245.6875 298.378906 247.570312 301.046875 248.53125 C 308.742188 251.308594 316.480469 254.425781 324.300781 257.195312 C 329.5625 259.058594 334.859375 260.761719 340.207031 262.101562 C 340.445312 262.160156 340.679688 262.148438 340.894531 262.074219 C 342.507812 262.472656 344.53125 262.847656 346.171875 263.671875 C 347.15625 264.167969 348 264.824219 348.375 265.851562 C 349.035156 267.671875 348.871094 269.75 348.398438 271.855469 C 347.644531 275.21875 346.070312 278.648438 345.164062 281.367188 C 342.433594 289.582031 339.699219 297.792969 336.804688 305.949219 C 334.878906 311.378906 332.882812 316.785156 330.773438 322.148438 L 325.210938 337.085938 C 324.679688 338.578125 323.957031 341.300781 323.007812 344.320312 L 300.03125 336.589844 L 273.71875 328.972656 L 265.851562 326.402344 C 263.945312 325.636719 262.089844 324.699219 260.164062 323.960938 C 259.402344 323.664062 258.628906 323.410156 257.839844 323.191406 C 258.085938 322.527344 258.316406 321.878906 258.496094 321.257812 L 270.421875 283.457031 C 271.753906 279.285156 275.425781 265.039062 279.425781 254.824219 Z M 269.59375 351.121094 C 269.320312 352.039062 268.511719 353.300781 267.621094 353.953125 C 267.128906 354.3125 266.691406 354.128906 266.394531 353.164062 C 266.089844 352.171875 266.078125 351.113281 266.199219 350.050781 C 266.359375 348.644531 266.746094 347.230469 267.113281 345.90625 C 267.644531 346.09375 268.160156 346.28125 268.628906 346.460938 C 269.335938 346.734375 270.050781 346.992188 270.757812 347.261719 Z M 305.53125 361.996094 C 305.269531 362.75 304.9375 363.460938 304.425781 364.035156 C 303.96875 364.546875 303.417969 364.71875 302.914062 364.5625 C 302.339844 364.382812 301.863281 363.863281 301.613281 363.175781 C 301.34375 362.425781 301.308594 361.601562 301.386719 360.769531 C 301.503906 359.527344 301.871094 358.277344 302.242188 357.160156 C 303.292969 357.4375 304.335938 357.734375 305.386719 358 L 306.511719 358.386719 C 306.191406 359.542969 305.941406 360.816406 305.53125 361.996094 Z M 313.515625 358.195312 L 305.996094 355.609375 C 299.804688 354.03125 293.664062 352.320312 287.578125 350.425781 C 281.5 348.535156 275.480469 346.460938 269.519531 344.160156 C 266.742188 343.085938 262.699219 341.964844 259.496094 340.074219 C 257.519531 338.90625 255.855469 337.449219 255.214844 335.429688 C 254.671875 333.730469 254.902344 331.871094 255.398438 329.996094 C 255.796875 328.488281 256.375 326.96875 256.949219 325.5 C 257.742188 325.707031 258.515625 325.964844 259.277344 326.261719 C 261.1875 327 263.035156 327.929688 264.929688 328.691406 L 273 331.332031 L 299.269531 338.933594 L 322.238281 346.664062 C 321.261719 349.503906 320.085938 352.402344 318.671875 354.648438 C 317.21875 356.960938 315.601562 358.640625 313.515625 358.195312 Z M 313.515625 358.195312 " fill-opacity="1" fill-rule="evenodd"/></g><path fill="#a5a5a5" d="M 309.027344 329.089844 C 309.6875 329.257812 310.359375 328.855469 310.523438 328.195312 C 310.867188 326.808594 311.273438 325.445312 311.710938 324.085938 C 312.75 320.867188 313.972656 317.703125 315.050781 314.496094 L 326.644531 280.085938 C 326.847656 279.4375 326.484375 278.746094 325.832031 278.542969 C 325.183594 278.34375 324.492188 278.707031 324.289062 279.359375 L 312.710938 313.710938 C 311.628906 316.925781 310.40625 320.097656 309.363281 323.328125 C 308.90625 324.738281 308.488281 326.15625 308.128906 327.597656 C 307.964844 328.257812 308.367188 328.925781 309.027344 329.089844 Z M 309.027344 329.089844 " fill-opacity="1" fill-rule="evenodd"/><path fill="#a5a5a5" d="M 292.910156 322.851562 C 292.714844 323.5 293.085938 324.191406 293.734375 324.386719 C 294.386719 324.582031 295.078125 324.210938 295.273438 323.558594 C 296.726562 318.71875 298.195312 313.875 299.746094 309.0625 C 300.777344 305.855469 301.84375 302.667969 302.972656 299.496094 L 311.949219 274.605469 C 312.15625 273.957031 311.800781 273.261719 311.152344 273.050781 C 310.503906 272.839844 309.808594 273.195312 309.601562 273.84375 L 300.644531 298.671875 C 299.511719 301.863281 298.4375 305.078125 297.398438 308.304688 C 295.84375 313.136719 294.371094 317.992188 292.910156 322.851562 Z M 292.910156 322.851562 " fill-opacity="1" fill-rule="evenodd"/><path fill="#a5a5a5" d="M 280.820312 308.246094 L 277.421875 319.359375 C 277.265625 320.023438 277.675781 320.6875 278.335938 320.847656 C 279 321.007812 279.664062 320.597656 279.824219 319.933594 L 283.179688 308.964844 C 286.066406 299.441406 289.335938 290.054688 292.335938 280.578125 C 293.628906 276.5 294.871094 272.40625 296.007812 268.277344 C 296.191406 267.621094 295.804688 266.941406 295.148438 266.761719 C 294.492188 266.578125 293.8125 266.964844 293.632812 267.621094 C 292.5 271.71875 291.265625 275.78125 289.984375 279.832031 C 286.980469 289.316406 283.710938 298.71875 280.820312 308.246094 Z M 280.820312 308.246094 " fill-opacity="1" fill-rule="evenodd"/><path fill="#a5a5a5" d="M 281.519531 319.625 C 281.511719 319.652344 281.527344 319.683594 281.554688 319.695312 C 281.582031 319.707031 281.613281 319.691406 281.621094 319.664062 C 283.59375 314.835938 285.5625 310.019531 287.375 305.128906 C 288.578125 301.871094 289.738281 298.597656 290.808594 295.296875 C 292.148438 291.164062 293.351562 286.996094 294.535156 282.816406 C 295.71875 278.636719 296.816406 274.445312 297.921875 270.242188 C 296.523438 274.355469 295.074219 278.4375 293.660156 282.542969 C 292.246094 286.640625 290.796875 290.726562 289.425781 294.839844 C 288.324219 298.125 287.273438 301.429688 286.226562 304.734375 C 284.652344 309.699219 283.148438 314.675781 281.519531 319.625 Z M 281.519531 319.625 " fill-opacity="1" fill-rule="evenodd"/><path fill="#a5a5a5" d="M 305.800781 295.605469 C 305.832031 295.617188 305.859375 295.601562 305.871094 295.570312 C 306.816406 293.238281 308.089844 290.921875 309.265625 288.5 C 309.644531 287.714844 310.007812 286.914062 310.339844 286.109375 C 310.675781 285.296875 310.984375 284.472656 311.257812 283.644531 C 312.230469 280.746094 312.902344 277.851562 313.125 275.058594 C 312.464844 277.878906 311.179688 280.675781 309.859375 283.554688 C 309.523438 284.289062 309.1875 285.027344 308.875 285.777344 C 308.40625 286.910156 307.976562 288.058594 307.574219 289.207031 C 306.832031 291.34375 306.234375 293.464844 305.765625 295.539062 C 305.757812 295.566406 305.773438 295.597656 305.800781 295.605469 Z M 305.800781 295.605469 " fill-opacity="1" fill-rule="evenodd"/><path fill="#a5a5a5" d="M 296.816406 323.933594 C 297.546875 321.953125 298.328125 320.011719 299.078125 318.042969 C 299.828125 316.078125 300.601562 314.132812 301.289062 312.148438 C 301.839844 310.5625 302.332031 308.957031 302.804688 307.347656 C 303.519531 304.917969 304.125 302.480469 304.800781 300.039062 C 304.808594 300.007812 304.796875 299.976562 304.765625 299.96875 C 304.738281 299.957031 304.707031 299.972656 304.699219 300 C 303.675781 302.320312 302.605469 304.601562 301.660156 306.949219 C 301.03125 308.511719 300.429688 310.082031 299.90625 311.683594 C 299.253906 313.6875 298.722656 315.722656 298.203125 317.765625 C 297.6875 319.8125 297.253906 321.863281 296.816406 323.933594 Z M 296.816406 323.933594 " fill-opacity="1" fill-rule="evenodd"/><path fill="#a5a5a5" d="M 312.488281 328.386719 C 313.203125 326.238281 314.097656 324.125 314.941406 321.941406 C 315.488281 320.523438 316.042969 319.101562 316.542969 317.664062 C 316.882812 316.695312 317.160156 315.71875 317.457031 314.746094 C 317.917969 313.253906 318.339844 311.789062 318.8125 310.34375 C 318.824219 310.316406 318.8125 310.28125 318.785156 310.269531 C 318.757812 310.261719 318.726562 310.273438 318.714844 310.300781 C 317.777344 311.960938 316.816406 313.625 315.988281 315.402344 C 315.449219 316.566406 314.945312 317.75 314.535156 318.972656 C 314.015625 320.503906 313.636719 322.070312 313.296875 323.632812 C 312.949219 325.230469 312.707031 326.8125 312.488281 328.386719 Z M 312.488281 328.386719 " fill-opacity="1" fill-rule="evenodd"/><path fill="#a5a5a5" d="M 319.84375 310.246094 C 319.082031 312.984375 318.476562 315.746094 318.085938 318.527344 C 318.574219 316.484375 319.203125 314.476562 319.894531 312.46875 C 320.847656 309.683594 321.953125 306.941406 323 304.1875 C 323.707031 302.328125 324.367188 300.460938 324.996094 298.601562 C 325.351562 297.4375 325.703125 296.269531 326.011719 295.089844 C 327.242188 290.390625 328.183594 285.628906 329.640625 280.984375 C 329.652344 280.957031 329.636719 280.925781 329.609375 280.917969 C 329.578125 280.90625 329.546875 280.921875 329.539062 280.949219 C 328.59375 283.199219 327.730469 285.46875 326.953125 287.777344 C 325.792969 291.226562 324.792969 294.722656 323.585938 298.152344 C 322.421875 302.160156 320.980469 306.167969 319.84375 310.246094 Z M 319.84375 310.246094 " fill-opacity="1" fill-rule="evenodd"/><path fill="#a5a5a5" d="M 270.121094 342.3125 C 268.75 341.539062 267.394531 340.738281 266.066406 339.90625 C 265.179688 339.351562 264.308594 338.789062 263.460938 338.203125 C 262.164062 337.308594 260.921875 336.382812 259.828125 335.308594 C 258.792969 334.332031 258.105469 332.558594 258.21875 330.972656 C 258.300781 329.855469 258.757812 328.835938 259.78125 328.210938 C 258.328125 328.847656 257.714844 330.277344 257.660156 331.796875 C 257.605469 333.355469 258.183594 334.988281 259.0625 336.03125 C 260.117188 337.246094 261.300781 338.371094 262.621094 339.367188 C 263.472656 340.011719 264.378906 340.605469 265.320312 341.148438 C 266.707031 341.945312 268.167969 342.640625 269.640625 343.277344 C 271.894531 344.246094 274.175781 345.046875 276.328125 345.878906 C 276.355469 345.890625 276.386719 345.878906 276.398438 345.851562 C 276.410156 345.824219 276.398438 345.792969 276.371094 345.78125 C 274.359375 344.671875 272.25 343.515625 270.121094 342.3125 Z M 270.121094 342.3125 " fill-opacity="1" fill-rule="evenodd"/><path fill="#a5a5a5" d="M 278.328125 263.773438 C 278.316406 263.804688 278.332031 263.835938 278.359375 263.84375 C 278.386719 263.855469 278.417969 263.84375 278.429688 263.816406 C 279.289062 262.097656 280.050781 260.296875 280.832031 258.492188 C 281.339844 257.3125 281.871094 256.160156 282.445312 255.035156 C 282.917969 254.109375 283.421875 253.207031 284.007812 252.355469 C 284.582031 251.519531 285.203125 250.710938 285.980469 249.992188 C 287.066406 248.945312 288.332031 247.996094 289.714844 247.675781 C 290.648438 247.457031 291.625 247.515625 292.640625 248.027344 C 291.667969 247.320312 290.652344 247.097656 289.636719 247.183594 C 288.09375 247.308594 286.589844 248.164062 285.261719 249.140625 C 284.335938 249.847656 283.535156 250.636719 282.859375 251.523438 C 282.179688 252.414062 281.613281 253.386719 281.152344 254.410156 C 280.609375 255.601562 280.203125 256.859375 279.84375 258.136719 C 279.304688 260.027344 278.902344 261.941406 278.328125 263.773438 Z M 278.328125 263.773438 " fill-opacity="1" fill-rule="evenodd"/><path fill="#a5a5a5" d="M 272.144531 287.246094 C 273.015625 283.96875 274.121094 280.726562 274.996094 277.433594 C 275.375 276.011719 275.699219 274.585938 275.957031 273.144531 C 275.5625 274.546875 275.089844 275.925781 274.589844 277.304688 C 273.429688 280.515625 272.101562 283.683594 270.980469 286.890625 C 270.1875 289.328125 269.339844 291.753906 268.582031 294.210938 C 267.875 296.496094 267.226562 298.804688 266.566406 301.109375 C 265.578125 304.574219 264.636719 308.039062 263.597656 311.484375 C 263.589844 311.511719 263.601562 311.542969 263.632812 311.550781 C 263.660156 311.5625 263.691406 311.546875 263.699219 311.519531 C 265.308594 307.546875 266.894531 303.566406 268.335938 299.519531 C 269.050781 297.5 269.738281 295.46875 270.371094 293.421875 C 271.003906 291.375 271.558594 289.304688 272.144531 287.246094 Z M 272.144531 287.246094 " fill-opacity="1" fill-rule="evenodd"/></svg>