<svg xmlns="http://www.w3.org/2000/svg" xmlns:xlink="http://www.w3.org/1999/xlink" width="1080" zoomAndPan="magnify" viewBox="0 0 810 809.999993" height="1080" preserveAspectRatio="xMidYMid meet" version="1.0"><defs><g/><clipPath id="75f564305d"><path d="M 81 142.136719 L 761.25 142.136719 L 761.25 667.886719 L 81 667.886719 Z M 81 142.136719 " clip-rule="nonzero"/></clipPath><clipPath id="7d55ab72a8"><path d="M 81 142.136719 L 761.25 142.136719 L 761.25 667.886719 L 81 667.886719 Z M 81 142.136719 " clip-rule="nonzero"/></clipPath></defs><g clip-path="url(#75f564305d)"><path fill="#6d6e71" d="M 246.363281 280.398438 L 600.902344 280.398438 L 600.902344 309.910156 L 246.363281 309.910156 Z M 725.773438 229.167969 C 711.828125 229.167969 699.769531 237.226562 693.96875 248.933594 L 112.453125 248.933594 L 112.453125 157.996094 C 112.453125 149.308594 105.410156 142.261719 96.726562 142.261719 C 88.039062 142.261719 81 149.308594 81 157.996094 L 81 651.980469 C 81 660.671875 88.039062 667.71875 96.726562 667.71875 C 105.410156 667.71875 112.453125 660.671875 112.453125 651.980469 L 112.453125 280.398438 L 214.910156 280.398438 L 214.910156 309.910156 L 192.53125 309.910156 C 173.277344 309.910156 157.613281 325.585938 157.613281 344.855469 L 157.613281 486.382812 C 157.613281 505.640625 173.277344 521.3125 192.53125 521.3125 L 650.15625 521.3125 C 669.414062 521.3125 685.082031 505.640625 685.082031 486.382812 L 685.082031 344.855469 C 685.082031 325.585938 669.414062 309.910156 650.15625 309.910156 L 632.351562 309.910156 L 632.351562 280.398438 L 693.96875 280.398438 C 699.769531 292.105469 711.828125 300.15625 725.773438 300.15625 C 745.363281 300.15625 761.246094 284.265625 761.246094 264.667969 C 761.246094 245.066406 745.363281 229.167969 725.773438 229.167969 " fill-opacity="1" fill-rule="nonzero"/><path fill="#000000" d="M 620.824219 447.910156 L 578.429688 447.910156 L 578.429688 380.003906 L 593.839844 380.003906 L 593.839844 435.011719 L 620.824219 435.011719 Z M 541.773438 447.910156 L 498.476562 447.910156 L 498.476562 380.003906 L 540.367188 380.003906 L 540.367188 392.59375 L 513.882812 392.59375 L 513.882812 406.699219 L 538.855469 406.699219 L 538.855469 419.191406 L 513.882812 419.191406 L 513.882812 435.3125 L 541.773438 435.3125 Z M 464.140625 392.898438 L 445.609375 392.898438 L 445.609375 447.910156 L 430.203125 447.910156 L 430.203125 392.898438 L 411.976562 392.898438 L 411.976562 380.003906 L 464.140625 380.003906 Z M 350.347656 449.011719 C 330.207031 449.011719 318.425781 433.800781 318.425781 414.457031 C 318.425781 394.105469 331.414062 378.894531 351.453125 378.894531 C 372.296875 378.894531 383.675781 394.507812 383.675781 413.25 C 383.675781 435.511719 370.183594 449.011719 350.347656 449.011719 Z M 281.972656 447.910156 L 266.667969 447.910156 L 266.667969 419.496094 L 241.390625 419.496094 L 241.390625 447.910156 L 225.984375 447.910156 L 225.984375 380.003906 L 241.390625 380.003906 L 241.390625 406.097656 L 266.667969 406.097656 L 266.667969 380.003906 L 281.972656 380.003906 Z M 246.363281 280.398438 L 600.902344 280.398438 L 600.902344 309.910156 L 246.363281 309.910156 Z M 725.773438 229.167969 C 711.828125 229.167969 699.769531 237.226562 693.96875 248.933594 L 112.453125 248.933594 L 112.453125 157.996094 C 112.453125 149.308594 105.410156 142.261719 96.726562 142.261719 C 88.039062 142.261719 81 149.308594 81 157.996094 L 81 651.980469 C 81 660.671875 88.039062 667.71875 96.726562 667.71875 C 105.410156 667.71875 112.453125 660.671875 112.453125 651.980469 L 112.453125 280.398438 L 214.910156 280.398438 L 214.910156 309.910156 L 192.53125 309.910156 C 173.277344 309.910156 157.613281 325.585938 157.613281 344.855469 L 157.613281 486.382812 C 157.613281 505.640625 173.277344 521.3125 192.53125 521.3125 L 650.15625 521.3125 C 669.414062 521.3125 685.082031 505.640625 685.082031 486.382812 L 685.082031 344.855469 C 685.082031 325.585938 669.414062 309.910156 650.15625 309.910156 L 632.351562 309.910156 L 632.351562 280.398438 L 693.96875 280.398438 C 699.769531 292.105469 711.828125 300.15625 725.773438 300.15625 C 745.363281 300.15625 761.246094 284.265625 761.246094 264.667969 C 761.246094 245.066406 745.363281 229.167969 725.773438 229.167969 " fill-opacity="1" fill-rule="nonzero"/></g><path fill="#000000" d="M 351.054688 391.082031 C 340.679688 391.082031 334.640625 400.957031 334.640625 414.15625 C 334.640625 427.449219 340.882812 436.820312 351.15625 436.820312 C 361.527344 436.820312 367.46875 426.949219 367.46875 413.75 C 367.46875 401.558594 361.628906 391.082031 351.054688 391.082031 " fill-opacity="1" fill-rule="nonzero"/><g clip-path="url(#7d55ab72a8)"><path fill="#000000" d="M 620.824219 447.910156 L 578.429688 447.910156 L 578.429688 380.003906 L 593.839844 380.003906 L 593.839844 435.011719 L 620.824219 435.011719 Z M 541.773438 447.910156 L 498.476562 447.910156 L 498.476562 380.003906 L 540.367188 380.003906 L 540.367188 392.59375 L 513.882812 392.59375 L 513.882812 406.699219 L 538.855469 406.699219 L 538.855469 419.191406 L 513.882812 419.191406 L 513.882812 435.3125 L 541.773438 435.3125 Z M 464.140625 392.898438 L 445.609375 392.898438 L 445.609375 447.910156 L 430.203125 447.910156 L 430.203125 392.898438 L 411.976562 392.898438 L 411.976562 380.003906 L 464.140625 380.003906 Z M 350.347656 449.011719 C 330.207031 449.011719 318.425781 433.800781 318.425781 414.457031 C 318.425781 394.105469 331.414062 378.894531 351.453125 378.894531 C 372.296875 378.894531 383.675781 394.507812 383.675781 413.25 C 383.675781 435.511719 370.183594 449.011719 350.347656 449.011719 Z M 281.972656 447.910156 L 266.667969 447.910156 L 266.667969 419.496094 L 241.390625 419.496094 L 241.390625 447.910156 L 225.984375 447.910156 L 225.984375 380.003906 L 241.390625 380.003906 L 241.390625 406.097656 L 266.667969 406.097656 L 266.667969 380.003906 L 281.972656 380.003906 Z M 246.363281 280.398438 L 600.902344 280.398438 L 600.902344 309.910156 L 246.363281 309.910156 Z M 725.773438 229.167969 C 711.828125 229.167969 699.769531 237.226562 693.96875 248.933594 L 112.453125 248.933594 L 112.453125 157.996094 C 112.453125 149.308594 105.410156 142.261719 96.726562 142.261719 C 88.039062 142.261719 81 149.308594 81 157.996094 L 81 651.980469 C 81 660.671875 88.039062 667.71875 96.726562 667.71875 C 105.410156 667.71875 112.453125 660.671875 112.453125 651.980469 L 112.453125 280.398438 L 214.910156 280.398438 L 214.910156 309.910156 L 192.53125 309.910156 C 173.277344 309.910156 157.613281 325.585938 157.613281 344.855469 L 157.613281 486.382812 C 157.613281 505.640625 173.277344 521.3125 192.53125 521.3125 L 650.15625 521.3125 C 669.414062 521.3125 685.082031 505.640625 685.082031 486.382812 L 685.082031 344.855469 C 685.082031 325.585938 669.414062 309.910156 650.15625 309.910156 L 632.351562 309.910156 L 632.351562 280.398438 L 693.96875 280.398438 C 699.769531 292.105469 711.828125 300.15625 725.773438 300.15625 C 745.363281 300.15625 761.246094 284.265625 761.246094 264.667969 C 761.246094 245.066406 745.363281 229.167969 725.773438 229.167969 " fill-opacity="1" fill-rule="nonzero"/></g><path fill="#000000" d="M 351.054688 391.082031 C 340.679688 391.082031 334.640625 400.957031 334.640625 414.15625 C 334.640625 427.449219 340.882812 436.820312 351.15625 436.820312 C 361.527344 436.820312 367.46875 426.949219 367.46875 413.75 C 367.46875 401.558594 361.628906 391.082031 351.054688 391.082031 " fill-opacity="1" fill-rule="nonzero"/><g fill="#6d6e71" fill-opacity="1"><g transform="translate(553.48164, 679.11445)"><g><path d="M 10.484375 -21.421875 C 13.960938 -21.421875 16.617188 -20.519531 18.453125 -18.71875 C 20.285156 -16.925781 21.203125 -14.253906 21.203125 -10.703125 C 21.203125 -7.171875 20.285156 -4.503906 18.453125 -2.703125 C 16.617188 -0.898438 13.960938 0 10.484375 0 L 2.78125 0 L 2.78125 -21.421875 Z M 10.234375 -3.5625 C 12.441406 -3.5625 14.09375 -4.125 15.1875 -5.25 C 16.28125 -6.375 16.828125 -8.191406 16.828125 -10.703125 C 16.828125 -13.210938 16.28125 -15.03125 15.1875 -16.15625 C 14.09375 -17.289062 12.441406 -17.859375 10.234375 -17.859375 L 7.015625 -17.859375 L 7.015625 -3.5625 Z M 10.234375 -3.5625 "/></g></g><g transform="translate(576.377146, 679.11445)"><g><path d="M 7.015625 0 L 2.78125 0 L 2.78125 -21.421875 L 7.015625 -21.421875 Z M 7.015625 0 "/></g></g><g transform="translate(586.191599, 679.11445)"><g><path d="M 10.484375 -21.421875 C 13.960938 -21.421875 16.617188 -20.519531 18.453125 -18.71875 C 20.285156 -16.925781 21.203125 -14.253906 21.203125 -10.703125 C 21.203125 -7.171875 20.285156 -4.503906 18.453125 -2.703125 C 16.617188 -0.898438 13.960938 0 10.484375 0 L 2.78125 0 L 2.78125 -21.421875 Z M 10.234375 -3.5625 C 12.441406 -3.5625 14.09375 -4.125 15.1875 -5.25 C 16.28125 -6.375 16.828125 -8.191406 16.828125 -10.703125 C 16.828125 -13.210938 16.28125 -15.03125 15.1875 -16.15625 C 14.09375 -17.289062 12.441406 -17.859375 10.234375 -17.859375 L 7.015625 -17.859375 L 7.015625 -3.5625 Z M 10.234375 -3.5625 "/></g></g><g transform="translate(609.087105, 679.11445)"><g><path d="M 7.015625 0 L 2.78125 0 L 2.78125 -21.421875 L 7.015625 -21.421875 Z M 7.015625 0 "/></g></g><g transform="translate(618.901558, 679.11445)"><g><path d="M 2.328125 0 L 2.328125 -16.15625 L 6.265625 -16.15625 L 6.265625 -13.75 L 6.578125 -13.703125 C 6.960938 -14.597656 7.472656 -15.253906 8.109375 -15.671875 C 8.742188 -16.085938 9.519531 -16.296875 10.4375 -16.296875 C 11.351562 -16.296875 12.050781 -16.140625 12.53125 -15.828125 L 11.84375 -12.328125 L 11.53125 -12.28125 C 11.269531 -12.382812 11.015625 -12.457031 10.765625 -12.5 C 10.523438 -12.550781 10.226562 -12.578125 9.875 -12.578125 C 8.738281 -12.578125 7.875 -12.179688 7.28125 -11.390625 C 6.6875 -10.597656 6.390625 -9.320312 6.390625 -7.5625 L 6.390625 0 Z M 2.328125 0 "/></g></g><g transform="translate(631.572456, 679.11445)"><g><path d="M 9.390625 0.3125 C 7.804688 0.3125 6.414062 -0.0078125 5.21875 -0.65625 C 4.019531 -1.3125 3.09375 -2.265625 2.4375 -3.515625 C 1.78125 -4.773438 1.453125 -6.296875 1.453125 -8.078125 C 1.453125 -9.847656 1.78125 -11.363281 2.4375 -12.625 C 3.09375 -13.882812 4.019531 -14.835938 5.21875 -15.484375 C 6.414062 -16.140625 7.804688 -16.46875 9.390625 -16.46875 C 10.972656 -16.46875 12.363281 -16.140625 13.5625 -15.484375 C 14.757812 -14.835938 15.6875 -13.882812 16.34375 -12.625 C 17.007812 -11.363281 17.34375 -9.847656 17.34375 -8.078125 C 17.34375 -6.296875 17.007812 -4.773438 16.34375 -3.515625 C 15.6875 -2.265625 14.757812 -1.3125 13.5625 -0.65625 C 12.363281 -0.0078125 10.972656 0.3125 9.390625 0.3125 Z M 9.390625 -3.140625 C 11.898438 -3.140625 13.15625 -4.785156 13.15625 -8.078125 C 13.15625 -9.785156 12.832031 -11.035156 12.1875 -11.828125 C 11.539062 -12.617188 10.609375 -13.015625 9.390625 -13.015625 C 6.878906 -13.015625 5.625 -11.367188 5.625 -8.078125 C 5.625 -4.785156 6.878906 -3.140625 9.390625 -3.140625 Z M 9.390625 -3.140625 "/></g></g><g transform="translate(650.351752, 679.11445)"><g><path d="M 9.390625 0.3125 C 7.804688 0.3125 6.414062 -0.0078125 5.21875 -0.65625 C 4.019531 -1.3125 3.09375 -2.265625 2.4375 -3.515625 C 1.78125 -4.773438 1.453125 -6.296875 1.453125 -8.078125 C 1.453125 -9.847656 1.78125 -11.363281 2.4375 -12.625 C 3.09375 -13.882812 4.019531 -14.835938 5.21875 -15.484375 C 6.414062 -16.140625 7.804688 -16.46875 9.390625 -16.46875 C 10.972656 -16.46875 12.363281 -16.140625 13.5625 -15.484375 C 14.757812 -14.835938 15.6875 -13.882812 16.34375 -12.625 C 17.007812 -11.363281 17.34375 -9.847656 17.34375 -8.078125 C 17.34375 -6.296875 17.007812 -4.773438 16.34375 -3.515625 C 15.6875 -2.265625 14.757812 -1.3125 13.5625 -0.65625 C 12.363281 -0.0078125 10.972656 0.3125 9.390625 0.3125 Z M 9.390625 -3.140625 C 11.898438 -3.140625 13.15625 -4.785156 13.15625 -8.078125 C 13.15625 -9.785156 12.832031 -11.035156 12.1875 -11.828125 C 11.539062 -12.617188 10.609375 -13.015625 9.390625 -13.015625 C 6.878906 -13.015625 5.625 -11.367188 5.625 -8.078125 C 5.625 -4.785156 6.878906 -3.140625 9.390625 -3.140625 Z M 9.390625 -3.140625 "/></g></g><g transform="translate(669.131048, 679.11445)"><g><path d="M 2.328125 0 L 2.328125 -16.15625 L 6.21875 -16.15625 L 6.21875 -13.984375 L 6.53125 -13.9375 C 7.0625 -14.800781 7.679688 -15.4375 8.390625 -15.84375 C 9.097656 -16.257812 10.003906 -16.46875 11.109375 -16.46875 C 12.328125 -16.46875 13.304688 -16.222656 14.046875 -15.734375 C 14.785156 -15.253906 15.328125 -14.550781 15.671875 -13.625 L 15.984375 -13.625 C 16.484375 -14.59375 17.125 -15.304688 17.90625 -15.765625 C 18.695312 -16.234375 19.675781 -16.46875 20.84375 -16.46875 C 24.195312 -16.46875 25.875 -14.601562 25.875 -10.875 L 25.875 0 L 21.8125 0 L 21.8125 -10.359375 C 21.8125 -11.304688 21.625 -11.988281 21.25 -12.40625 C 20.882812 -12.820312 20.289062 -13.03125 19.46875 -13.03125 C 17.238281 -13.03125 16.125 -11.539062 16.125 -8.5625 L 16.125 0 L 12.078125 0 L 12.078125 -10.359375 C 12.078125 -11.304688 11.882812 -11.988281 11.5 -12.40625 C 11.125 -12.820312 10.53125 -13.03125 9.71875 -13.03125 C 8.664062 -13.03125 7.847656 -12.679688 7.265625 -11.984375 C 6.679688 -11.285156 6.390625 -10.175781 6.390625 -8.65625 L 6.390625 0 Z M 2.328125 0 "/></g></g><g transform="translate(697.080265, 679.11445)"><g><path d="M 7.5625 0.3125 C 6.457031 0.3125 5.445312 0.179688 4.53125 -0.078125 C 3.613281 -0.335938 2.828125 -0.691406 2.171875 -1.140625 C 1.523438 -1.597656 1.046875 -2.117188 0.734375 -2.703125 L 2.984375 -5.140625 L 3.296875 -5.140625 C 3.835938 -4.421875 4.472656 -3.878906 5.203125 -3.515625 C 5.929688 -3.148438 6.726562 -2.96875 7.59375 -2.96875 C 8.382812 -2.96875 8.976562 -3.109375 9.375 -3.390625 C 9.769531 -3.679688 9.96875 -4.085938 9.96875 -4.609375 C 9.96875 -5.023438 9.820312 -5.367188 9.53125 -5.640625 C 9.25 -5.921875 8.785156 -6.140625 8.140625 -6.296875 L 6 -6.8125 C 4.40625 -7.195312 3.238281 -7.78125 2.5 -8.5625 C 1.757812 -9.34375 1.390625 -10.34375 1.390625 -11.5625 C 1.390625 -12.5625 1.644531 -13.429688 2.15625 -14.171875 C 2.675781 -14.921875 3.398438 -15.488281 4.328125 -15.875 C 5.265625 -16.269531 6.351562 -16.46875 7.59375 -16.46875 C 9.039062 -16.46875 10.242188 -16.253906 11.203125 -15.828125 C 12.160156 -15.410156 12.910156 -14.851562 13.453125 -14.15625 L 11.28125 -11.8125 L 10.984375 -11.8125 C 10.535156 -12.3125 10.03125 -12.675781 9.46875 -12.90625 C 8.90625 -13.144531 8.28125 -13.265625 7.59375 -13.265625 C 5.988281 -13.265625 5.1875 -12.769531 5.1875 -11.78125 C 5.1875 -11.351562 5.332031 -11.007812 5.625 -10.75 C 5.925781 -10.488281 6.453125 -10.273438 7.203125 -10.109375 L 9.203125 -9.671875 C 10.835938 -9.316406 12.035156 -8.75 12.796875 -7.96875 C 13.554688 -7.195312 13.9375 -6.15625 13.9375 -4.84375 C 13.9375 -3.820312 13.679688 -2.921875 13.171875 -2.140625 C 12.660156 -1.359375 11.925781 -0.753906 10.96875 -0.328125 C 10.007812 0.0976562 8.875 0.3125 7.5625 0.3125 Z M 7.5625 0.3125 "/></g></g></g></svg>