<svg xmlns="http://www.w3.org/2000/svg" xmlns:xlink="http://www.w3.org/1999/xlink" width="1080" zoomAndPan="magnify" viewBox="0 0 810 809.999993" height="1080" preserveAspectRatio="xMidYMid meet" version="1.0"><defs><g/><clipPath id="38f879f688"><path d="M 139.195312 52.058594 L 671 52.058594 L 671 757.390625 L 139.195312 757.390625 Z M 139.195312 52.058594 " clip-rule="nonzero"/></clipPath><clipPath id="768f05e4b2"><path d="M 235 447 L 575 447 L 575 569 L 235 569 Z M 235 447 " clip-rule="nonzero"/></clipPath><clipPath id="9bc72279a7"><path d="M 404.992188 328.183594 L 574.546875 497.738281 L 404.992188 667.292969 L 235.4375 497.738281 Z M 404.992188 328.183594 " clip-rule="nonzero"/></clipPath><clipPath id="f36c9fc4a3"><path d="M 404.992188 328.183594 L 574.546875 497.738281 L 404.992188 667.292969 L 235.4375 497.738281 Z M 404.992188 328.183594 " clip-rule="nonzero"/></clipPath></defs><g clip-path="url(#38f879f688)"><path fill="#ffbf00" d="M 139.160156 52.597656 L 670.839844 52.597656 L 670.839844 491.550781 C 670.839844 638.429688 551.878906 757.390625 405 757.390625 C 258.121094 757.390625 139.160156 638.429688 139.160156 491.550781 Z M 139.160156 52.597656 " fill-opacity="1" fill-rule="nonzero"/></g><g clip-path="url(#768f05e4b2)"><g clip-path="url(#9bc72279a7)"><g clip-path="url(#f36c9fc4a3)"><path fill="#000000" d="M 524.128906 447.320312 C 458.390625 513.0625 351.597656 513.0625 285.855469 447.320312 L 235.042969 498.132812 C 328.917969 592.007812 481.070312 592.007812 574.941406 498.132812 Z M 524.128906 447.320312 " fill-opacity="1" fill-rule="nonzero"/></g></g></g><g fill="#000000" fill-opacity="1"><g transform="translate(185.688421, 193.302221)"><g><path d="M 3.640625 -23.375 C 3.640625 -28.113281 4.597656 -32.273438 6.515625 -35.859375 C 8.441406 -39.453125 11.082031 -42.234375 14.4375 -44.203125 C 17.800781 -46.179688 21.570312 -47.171875 25.75 -47.171875 C 29.363281 -47.171875 32.722656 -46.335938 35.828125 -44.671875 C 38.929688 -43.003906 41.300781 -40.816406 42.9375 -38.109375 L 42.9375 -62.671875 L 50.734375 -62.671875 L 50.734375 0 L 42.9375 0 L 42.9375 -8.71875 C 41.414062 -5.957031 39.15625 -3.6875 36.15625 -1.90625 C 33.164062 -0.125 29.664062 0.765625 25.65625 0.765625 C 21.539062 0.765625 17.800781 -0.25 14.4375 -2.28125 C 11.082031 -4.3125 8.441406 -7.160156 6.515625 -10.828125 C 4.597656 -14.503906 3.640625 -18.6875 3.640625 -23.375 Z M 42.9375 -23.28125 C 42.9375 -26.789062 42.226562 -29.84375 40.8125 -32.4375 C 39.40625 -35.03125 37.5 -37.019531 35.09375 -38.40625 C 32.695312 -39.789062 30.0625 -40.484375 27.1875 -40.484375 C 24.300781 -40.484375 21.671875 -39.804688 19.296875 -38.453125 C 16.929688 -37.097656 15.039062 -35.117188 13.625 -32.515625 C 12.21875 -29.921875 11.515625 -26.875 11.515625 -23.375 C 11.515625 -19.8125 12.21875 -16.71875 13.625 -14.09375 C 15.039062 -11.46875 16.929688 -9.460938 19.296875 -8.078125 C 21.671875 -6.703125 24.300781 -6.015625 27.1875 -6.015625 C 30.0625 -6.015625 32.695312 -6.703125 35.09375 -8.078125 C 37.5 -9.460938 39.40625 -11.46875 40.8125 -14.09375 C 42.226562 -16.71875 42.9375 -19.78125 42.9375 -23.28125 Z M 42.9375 -23.28125 "/></g></g></g><g fill="#000000" fill-opacity="1"><g transform="translate(242.906604, 193.302221)"><g><path d="M 10.5 -53.953125 C 9.03125 -53.953125 7.785156 -54.457031 6.765625 -55.46875 C 5.753906 -56.488281 5.25 -57.734375 5.25 -59.203125 C 5.25 -60.660156 5.753906 -61.898438 6.765625 -62.921875 C 7.785156 -63.941406 9.03125 -64.453125 10.5 -64.453125 C 11.914062 -64.453125 13.113281 -63.941406 14.09375 -62.921875 C 15.082031 -61.898438 15.578125 -60.660156 15.578125 -59.203125 C 15.578125 -57.734375 15.082031 -56.488281 14.09375 -55.46875 C 13.113281 -54.457031 11.914062 -53.953125 10.5 -53.953125 Z M 14.234375 -46.40625 L 14.234375 0 L 6.515625 0 L 6.515625 -46.40625 Z M 14.234375 -46.40625 "/></g></g></g><g fill="#000000" fill-opacity="1"><g transform="translate(263.728615, 193.302221)"><g><path d="M 3.640625 -23.375 C 3.640625 -28.113281 4.597656 -32.273438 6.515625 -35.859375 C 8.441406 -39.453125 11.082031 -42.234375 14.4375 -44.203125 C 17.800781 -46.179688 21.570312 -47.171875 25.75 -47.171875 C 29.363281 -47.171875 32.722656 -46.335938 35.828125 -44.671875 C 38.929688 -43.003906 41.300781 -40.816406 42.9375 -38.109375 L 42.9375 -62.671875 L 50.734375 -62.671875 L 50.734375 0 L 42.9375 0 L 42.9375 -8.71875 C 41.414062 -5.957031 39.15625 -3.6875 36.15625 -1.90625 C 33.164062 -0.125 29.664062 0.765625 25.65625 0.765625 C 21.539062 0.765625 17.800781 -0.25 14.4375 -2.28125 C 11.082031 -4.3125 8.441406 -7.160156 6.515625 -10.828125 C 4.597656 -14.503906 3.640625 -18.6875 3.640625 -23.375 Z M 42.9375 -23.28125 C 42.9375 -26.789062 42.226562 -29.84375 40.8125 -32.4375 C 39.40625 -35.03125 37.5 -37.019531 35.09375 -38.40625 C 32.695312 -39.789062 30.0625 -40.484375 27.1875 -40.484375 C 24.300781 -40.484375 21.671875 -39.804688 19.296875 -38.453125 C 16.929688 -37.097656 15.039062 -35.117188 13.625 -32.515625 C 12.21875 -29.921875 11.515625 -26.875 11.515625 -23.375 C 11.515625 -19.8125 12.21875 -16.71875 13.625 -14.09375 C 15.039062 -11.46875 16.929688 -9.460938 19.296875 -8.078125 C 21.671875 -6.703125 24.300781 -6.015625 27.1875 -6.015625 C 30.0625 -6.015625 32.695312 -6.703125 35.09375 -8.078125 C 37.5 -9.460938 39.40625 -11.46875 40.8125 -14.09375 C 42.226562 -16.71875 42.9375 -19.78125 42.9375 -23.28125 Z M 42.9375 -23.28125 "/></g></g></g><g fill="#000000" fill-opacity="1"><g transform="translate(320.946797, 193.302221)"><g><path d="M 10.5 -53.953125 C 9.03125 -53.953125 7.785156 -54.457031 6.765625 -55.46875 C 5.753906 -56.488281 5.25 -57.734375 5.25 -59.203125 C 5.25 -60.660156 5.753906 -61.898438 6.765625 -62.921875 C 7.785156 -63.941406 9.03125 -64.453125 10.5 -64.453125 C 11.914062 -64.453125 13.113281 -63.941406 14.09375 -62.921875 C 15.082031 -61.898438 15.578125 -60.660156 15.578125 -59.203125 C 15.578125 -57.734375 15.082031 -56.488281 14.09375 -55.46875 C 13.113281 -54.457031 11.914062 -53.953125 10.5 -53.953125 Z M 14.234375 -46.40625 L 14.234375 0 L 6.515625 0 L 6.515625 -46.40625 Z M 14.234375 -46.40625 "/></g></g></g><g fill="#000000" fill-opacity="1"><g transform="translate(346.404014, 193.302221)"><g><path d="M 14.234375 -38.875 C 15.585938 -41.53125 17.519531 -43.585938 20.03125 -45.046875 C 22.539062 -46.515625 25.601562 -47.25 29.21875 -47.25 L 29.21875 -39.296875 L 27.1875 -39.296875 C 18.550781 -39.296875 14.234375 -34.609375 14.234375 -25.234375 L 14.234375 0 L 6.515625 0 L 6.515625 -46.40625 L 14.234375 -46.40625 Z M 14.234375 -38.875 "/></g></g></g><g fill="#000000" fill-opacity="1"><g transform="translate(377.975609, 193.302221)"><g><path d="M 26.765625 0.765625 C 22.410156 0.765625 18.46875 -0.222656 14.9375 -2.203125 C 11.414062 -4.179688 8.648438 -6.988281 6.640625 -10.625 C 4.640625 -14.269531 3.640625 -18.488281 3.640625 -23.28125 C 3.640625 -28.03125 4.671875 -32.222656 6.734375 -35.859375 C 8.796875 -39.503906 11.601562 -42.300781 15.15625 -44.25 C 18.71875 -46.195312 22.695312 -47.171875 27.09375 -47.171875 C 31.5 -47.171875 35.476562 -46.195312 39.03125 -44.25 C 42.59375 -42.300781 45.40625 -39.519531 47.46875 -35.90625 C 49.53125 -32.289062 50.5625 -28.082031 50.5625 -23.28125 C 50.5625 -18.488281 49.5 -14.269531 47.375 -10.625 C 45.257812 -6.988281 42.394531 -4.179688 38.78125 -2.203125 C 35.164062 -0.222656 31.160156 0.765625 26.765625 0.765625 Z M 26.765625 -6.015625 C 29.523438 -6.015625 32.117188 -6.660156 34.546875 -7.953125 C 36.972656 -9.253906 38.9375 -11.203125 40.4375 -13.796875 C 41.9375 -16.398438 42.6875 -19.5625 42.6875 -23.28125 C 42.6875 -27.007812 41.953125 -30.171875 40.484375 -32.765625 C 39.015625 -35.367188 37.09375 -37.304688 34.71875 -38.578125 C 32.351562 -39.847656 29.785156 -40.484375 27.015625 -40.484375 C 24.191406 -40.484375 21.609375 -39.847656 19.265625 -38.578125 C 16.921875 -37.304688 15.039062 -35.367188 13.625 -32.765625 C 12.21875 -30.171875 11.515625 -27.007812 11.515625 -23.28125 C 11.515625 -19.5 12.207031 -16.3125 13.59375 -13.71875 C 14.976562 -11.125 16.828125 -9.191406 19.140625 -7.921875 C 21.453125 -6.648438 23.992188 -6.015625 26.765625 -6.015625 Z M 26.765625 -6.015625 "/></g></g></g><g fill="#000000" fill-opacity="1"><g transform="translate(432.14668, 193.302221)"><g><path d="M 26.765625 0.765625 C 22.410156 0.765625 18.46875 -0.222656 14.9375 -2.203125 C 11.414062 -4.179688 8.648438 -6.988281 6.640625 -10.625 C 4.640625 -14.269531 3.640625 -18.488281 3.640625 -23.28125 C 3.640625 -28.03125 4.671875 -32.222656 6.734375 -35.859375 C 8.796875 -39.503906 11.601562 -42.300781 15.15625 -44.25 C 18.71875 -46.195312 22.695312 -47.171875 27.09375 -47.171875 C 31.5 -47.171875 35.476562 -46.195312 39.03125 -44.25 C 42.59375 -42.300781 45.40625 -39.519531 47.46875 -35.90625 C 49.53125 -32.289062 50.5625 -28.082031 50.5625 -23.28125 C 50.5625 -18.488281 49.5 -14.269531 47.375 -10.625 C 45.257812 -6.988281 42.394531 -4.179688 38.78125 -2.203125 C 35.164062 -0.222656 31.160156 0.765625 26.765625 0.765625 Z M 26.765625 -6.015625 C 29.523438 -6.015625 32.117188 -6.660156 34.546875 -7.953125 C 36.972656 -9.253906 38.9375 -11.203125 40.4375 -13.796875 C 41.9375 -16.398438 42.6875 -19.5625 42.6875 -23.28125 C 42.6875 -27.007812 41.953125 -30.171875 40.484375 -32.765625 C 39.015625 -35.367188 37.09375 -37.304688 34.71875 -38.578125 C 32.351562 -39.847656 29.785156 -40.484375 27.015625 -40.484375 C 24.191406 -40.484375 21.609375 -39.847656 19.265625 -38.578125 C 16.921875 -37.304688 15.039062 -35.367188 13.625 -32.765625 C 12.21875 -30.171875 11.515625 -27.007812 11.515625 -23.28125 C 11.515625 -19.5 12.207031 -16.3125 13.59375 -13.71875 C 14.976562 -11.125 16.828125 -9.191406 19.140625 -7.921875 C 21.453125 -6.648438 23.992188 -6.015625 26.765625 -6.015625 Z M 26.765625 -6.015625 "/></g></g></g><g fill="#000000" fill-opacity="1"><g transform="translate(486.317751, 193.302221)"><g><path d="M 62.328125 -47.25 C 65.941406 -47.25 69.160156 -46.5 71.984375 -45 C 74.804688 -43.507812 77.035156 -41.269531 78.671875 -38.28125 C 80.304688 -35.289062 81.125 -31.648438 81.125 -27.359375 L 81.125 0 L 73.515625 0 L 73.515625 -26.25 C 73.515625 -30.882812 72.367188 -34.425781 70.078125 -36.875 C 67.796875 -39.332031 64.707031 -40.5625 60.8125 -40.5625 C 56.800781 -40.5625 53.609375 -39.273438 51.234375 -36.703125 C 48.859375 -34.140625 47.671875 -30.429688 47.671875 -25.578125 L 47.671875 0 L 40.0625 0 L 40.0625 -26.25 C 40.0625 -30.882812 38.914062 -34.425781 36.625 -36.875 C 34.34375 -39.332031 31.253906 -40.5625 27.359375 -40.5625 C 23.347656 -40.5625 20.15625 -39.273438 17.78125 -36.703125 C 15.414062 -34.140625 14.234375 -30.429688 14.234375 -25.578125 L 14.234375 0 L 6.515625 0 L 6.515625 -46.40625 L 14.234375 -46.40625 L 14.234375 -39.71875 C 15.753906 -42.144531 17.796875 -44.003906 20.359375 -45.296875 C 22.929688 -46.597656 25.769531 -47.25 28.875 -47.25 C 32.769531 -47.25 36.210938 -46.375 39.203125 -44.625 C 42.203125 -42.875 44.4375 -40.304688 45.90625 -36.921875 C 47.195312 -40.191406 49.335938 -42.726562 52.328125 -44.53125 C 55.328125 -46.34375 58.660156 -47.25 62.328125 -47.25 Z M 62.328125 -47.25 "/></g></g></g><g fill="#000000" fill-opacity="1"><g transform="translate(573.499324, 193.302221)"><g><path d="M 22.953125 0.765625 C 19.390625 0.765625 16.195312 0.160156 13.375 -1.046875 C 10.550781 -2.265625 8.320312 -3.960938 6.6875 -6.140625 C 5.050781 -8.316406 4.148438 -10.816406 3.984375 -13.640625 L 11.9375 -13.640625 C 12.164062 -11.316406 13.253906 -9.421875 15.203125 -7.953125 C 17.148438 -6.492188 19.703125 -5.765625 22.859375 -5.765625 C 25.796875 -5.765625 28.109375 -6.410156 29.796875 -7.703125 C 31.492188 -9.003906 32.34375 -10.644531 32.34375 -12.625 C 32.34375 -14.65625 31.441406 -16.160156 29.640625 -17.140625 C 27.835938 -18.128906 25.039062 -19.109375 21.25 -20.078125 C 17.8125 -20.972656 15.003906 -21.882812 12.828125 -22.8125 C 10.648438 -23.75 8.785156 -25.132812 7.234375 -26.96875 C 5.679688 -28.800781 4.90625 -31.21875 4.90625 -34.21875 C 4.90625 -36.582031 5.609375 -38.753906 7.015625 -40.734375 C 8.429688 -42.710938 10.4375 -44.28125 13.03125 -45.4375 C 15.632812 -46.59375 18.601562 -47.171875 21.9375 -47.171875 C 27.070312 -47.171875 31.21875 -45.867188 34.375 -43.265625 C 37.539062 -40.671875 39.238281 -37.117188 39.46875 -32.609375 L 31.75 -32.609375 C 31.582031 -35.035156 30.609375 -36.984375 28.828125 -38.453125 C 27.054688 -39.921875 24.675781 -40.65625 21.6875 -40.65625 C 18.914062 -40.65625 16.710938 -40.0625 15.078125 -38.875 C 13.441406 -37.6875 12.625 -36.132812 12.625 -34.21875 C 12.625 -32.6875 13.113281 -31.425781 14.09375 -30.4375 C 15.082031 -29.457031 16.328125 -28.671875 17.828125 -28.078125 C 19.328125 -27.484375 21.398438 -26.816406 24.046875 -26.078125 C 27.378906 -25.179688 30.085938 -24.296875 32.171875 -23.421875 C 34.265625 -22.546875 36.054688 -21.234375 37.546875 -19.484375 C 39.046875 -17.734375 39.828125 -15.445312 39.890625 -12.625 C 39.890625 -10.082031 39.179688 -7.789062 37.765625 -5.75 C 36.359375 -3.71875 34.367188 -2.125 31.796875 -0.96875 C 29.234375 0.1875 26.285156 0.765625 22.953125 0.765625 Z M 22.953125 0.765625 "/></g></g></g></svg>